<?xml version="1.0" encoding="utf-8"?>
<!-- Generator: Adobe Illustrator 27.5.0, SVG Export Plug-In . SVG Version: 6.00 Build 0)  -->
<svg version="1.1" xmlns="http://www.w3.org/2000/svg" xmlns:xlink="http://www.w3.org/1999/xlink" x="0px" y="0px"
	 viewBox="0 0 500 500" style="enable-background:new 0 0 500 500;" xml:space="preserve">
<g id="BACKGROUND">
	<rect style="fill:#FEFFFF;" width="500" height="500"/>
</g>
<g id="OBJECTS">
	<g>
		<g>
			<g>
				<path style="fill:#00A291;" d="M37.483,25.26c-18.6,41.954,0.333,91.043,42.288,109.643
					c41.954,18.6,91.043-0.333,109.643-42.287L37.483,25.26z"/>
			</g>
			<path style="fill:#ABD9D4;" d="M47.998,29.922c-16.025,36.147,0.287,78.441,36.434,94.466
				c36.147,16.025,78.441-0.287,94.466-36.434L47.998,29.922z"/>
		</g>
		<g>
			<path style="fill:#D44C57;" d="M51.687,31.557c-15.122,34.11,0.271,74.02,34.381,89.142c34.11,15.122,74.02-0.271,89.142-34.381
				L51.687,31.557z"/>
			<path style="fill:#FF616C;" d="M172.619,85.17L54.277,32.706c-12.15,33.125,2.25,69.934,33.63,83.846
				C119.286,130.463,156.232,116.416,172.619,85.17z"/>
			<path style="opacity:0.1;fill:#FFFFFF;" d="M101.639,85.575c15.418,6.835,32.482,6.216,47.99-0.306
				c1.992-0.838,2.001-3.666,0.026-4.541L72.989,46.74c-1.975-0.876-4.064,1.031-3.348,3.069
				C75.221,65.68,86.221,78.74,101.639,85.575z"/>
			<g>
				<path style="opacity:0.1;" d="M59.671,49.808L59.671,49.808c-0.329-1.512,0.639-3.018,2.151-3.347l4.398-0.958
					c1.512-0.329,3.018,0.639,3.347,2.151l0,0c0.329,1.512-0.639,3.018-2.15,3.347l-4.398,0.958
					C61.506,52.288,60,51.32,59.671,49.808z"/>
				<g>
					<path style="fill:#571F23;" d="M60.878,49.647l-0.042-0.193c-0.208-0.955,0.403-1.906,1.358-2.114l4.051-0.882
						c0.955-0.208,1.906,0.403,2.114,1.358l0.042,0.193c0.208,0.955-0.403,1.906-1.358,2.114l-4.051,0.882
						C62.037,51.213,61.086,50.602,60.878,49.647z"/>
					<path style="opacity:0.2;fill:#FFFFFF;" d="M65.224,48.136l-0.02-0.093c-0.053-0.243,0.103-0.486,0.346-0.539l0.963-0.21
						c0.244-0.053,0.486,0.103,0.539,0.346l0.02,0.093c0.053,0.244-0.103,0.486-0.346,0.539l-0.963,0.21
						C65.52,48.535,65.277,48.379,65.224,48.136z"/>
				</g>
			</g>
			<g>
				<path style="opacity:0.1;" d="M72.983,73.245L72.983,73.245c-0.934-1.236-0.686-3.009,0.549-3.941l3.59-2.709
					c1.234-0.931,3.006-0.684,3.938,0.55l0.001,0.001c0.933,1.235,0.685,3.008-0.55,3.94l-3.591,2.709
					C75.687,74.726,73.914,74.478,72.983,73.245z"/>
				<g>
					<path style="fill:#571F23;" d="M74.01,72.592l-0.12-0.158c-0.589-0.78-0.433-1.9,0.347-2.489l3.307-2.496
						c0.779-0.588,1.899-0.432,2.487,0.347l0.12,0.158c0.589,0.78,0.433,1.9-0.347,2.489l-3.308,2.496
						C75.718,73.527,74.599,73.371,74.01,72.592z"/>
					<path style="opacity:0.2;fill:#FFFFFF;" d="M77.321,69.401l-0.057-0.076c-0.15-0.199-0.11-0.485,0.089-0.635l0.786-0.593
						c0.199-0.15,0.484-0.11,0.634,0.089l0.057,0.076c0.15,0.199,0.11,0.485-0.089,0.635l-0.786,0.593
						C77.757,69.64,77.471,69.6,77.321,69.401z"/>
				</g>
			</g>
			<g>
				<path style="opacity:0.1;" d="M98.815,82.013L98.815,82.013c-0.933-1.236-0.686-3.009,0.549-3.941l3.591-2.709
					c1.234-0.931,3.006-0.684,3.938,0.55l0.001,0.001c0.933,1.235,0.685,3.008-0.55,3.94l-3.59,2.709
					C101.519,83.494,99.747,83.247,98.815,82.013z"/>
				<g>
					<path style="fill:#571F23;" d="M99.843,81.36l-0.12-0.158c-0.589-0.78-0.433-1.9,0.347-2.489l3.308-2.496
						c0.779-0.588,1.899-0.432,2.487,0.347l0.12,0.158c0.589,0.78,0.433,1.9-0.347,2.488l-3.307,2.496
						C101.551,82.296,100.431,82.14,99.843,81.36z"/>
					<path style="opacity:0.2;fill:#FFFFFF;" d="M103.154,78.17l-0.057-0.076c-0.15-0.199-0.11-0.484,0.089-0.635l0.786-0.593
						c0.199-0.15,0.484-0.11,0.634,0.089l0.057,0.076c0.15,0.199,0.11,0.484-0.089,0.635l-0.786,0.593
						C103.589,78.408,103.304,78.368,103.154,78.17z"/>
				</g>
			</g>
			<g>
				<path style="opacity:0.1;" d="M151.194,91.178L151.194,91.178c-0.933-1.236-0.686-3.009,0.549-3.941l3.59-2.709
					c1.234-0.931,3.006-0.684,3.938,0.55l0.001,0.001c0.933,1.235,0.685,3.008-0.55,3.94l-3.59,2.709
					C153.897,92.659,152.125,92.411,151.194,91.178z"/>
				<g>
					<path style="fill:#571F23;" d="M152.221,90.525l-0.12-0.158c-0.589-0.78-0.433-1.9,0.348-2.489l3.307-2.496
						c0.779-0.588,1.899-0.432,2.487,0.347l0.12,0.158c0.589,0.78,0.433,1.9-0.347,2.489l-3.307,2.496
						C153.929,91.461,152.81,91.304,152.221,90.525z"/>
					<path style="opacity:0.2;fill:#FFFFFF;" d="M155.532,87.334l-0.057-0.076c-0.15-0.199-0.11-0.484,0.089-0.635l0.786-0.593
						c0.199-0.15,0.484-0.11,0.634,0.089l0.057,0.076c0.15,0.199,0.11,0.484-0.089,0.635l-0.786,0.593
						C155.968,87.573,155.682,87.533,155.532,87.334z"/>
				</g>
			</g>
			<g>
				<path style="opacity:0.1;" d="M76.56,52.553L76.56,52.553c0.8-1.326,2.539-1.754,3.863-0.954l3.849,2.327
					c1.323,0.8,1.751,2.537,0.952,3.86l-0.001,0.001c-0.8,1.325-2.538,1.754-3.863,0.953l-3.849-2.327
					C76.19,55.614,75.761,53.877,76.56,52.553z"/>
				<g>
					<path style="fill:#571F23;" d="M77.548,53.265l0.103-0.17c0.505-0.837,1.603-1.108,2.439-0.602l3.546,2.144
						c0.836,0.505,1.106,1.602,0.602,2.438l-0.103,0.17c-0.505,0.837-1.603,1.108-2.44,0.602l-3.546-2.144
						C77.314,55.198,77.043,54.101,77.548,53.265z"/>
					<path style="opacity:0.2;fill:#FFFFFF;" d="M81.741,55.154l0.049-0.081c0.129-0.213,0.409-0.282,0.622-0.153l0.843,0.51
						c0.213,0.129,0.282,0.409,0.153,0.622l-0.049,0.081c-0.129,0.213-0.409,0.283-0.622,0.153l-0.843-0.51
						C81.681,55.647,81.612,55.367,81.741,55.154z"/>
				</g>
			</g>
			<g>
				<path style="opacity:0.1;" d="M96.561,65.38L96.561,65.38c-0.591-1.431,0.095-3.083,1.526-3.672l4.158-1.714
					c1.429-0.589,3.082,0.097,3.672,1.525l0,0.001c0.591,1.43-0.096,3.082-1.526,3.671l-4.158,1.714
					C98.804,67.494,97.151,66.808,96.561,65.38z"/>
				<g>
					<path style="fill:#571F23;" d="M97.72,65.008l-0.076-0.183c-0.373-0.903,0.06-1.946,0.964-2.319l3.83-1.579
						c0.903-0.372,1.946,0.062,2.319,0.963l0.076,0.183c0.373,0.903-0.061,1.947-0.964,2.319l-3.83,1.579
						C99.136,66.344,98.093,65.91,97.72,65.008z"/>
					<path style="opacity:0.2;fill:#FFFFFF;" d="M101.729,62.758l-0.036-0.088c-0.095-0.23,0.016-0.496,0.246-0.591l0.911-0.375
						c0.23-0.095,0.496,0.016,0.592,0.246l0.036,0.088c0.095,0.23-0.015,0.496-0.246,0.591l-0.911,0.376
						C102.09,63.098,101.824,62.988,101.729,62.758z"/>
				</g>
			</g>
			<g>
				<path style="opacity:0.1;" d="M120.361,76.837L120.361,76.837c-1.478,0.459-3.061-0.374-3.519-1.853l-1.33-4.296
					c-0.457-1.477,0.376-3.06,1.852-3.519l0.001,0c1.477-0.459,3.06,0.375,3.518,1.853l1.33,4.296
					C122.67,74.795,121.836,76.379,120.361,76.837z"/>
				<g>
					<path style="fill:#571F23;" d="M120.096,75.649l-0.189,0.059c-0.933,0.29-1.933-0.237-2.222-1.17l-1.225-3.958
						c-0.289-0.933,0.238-1.933,1.17-2.222l0.189-0.059c0.933-0.29,1.933,0.237,2.222,1.17l1.225,3.958
						C121.554,74.36,121.028,75.36,120.096,75.649z"/>
					<path style="opacity:0.2;fill:#FFFFFF;" d="M118.218,71.452l-0.091,0.028c-0.238,0.074-0.493-0.06-0.567-0.299l-0.291-0.941
						c-0.074-0.238,0.061-0.493,0.298-0.567l0.091-0.028c0.238-0.074,0.493,0.06,0.567,0.299l0.291,0.941
						C118.59,71.124,118.456,71.379,118.218,71.452z"/>
				</g>
			</g>
			<g>
				<path style="opacity:0.1;" d="M62.208,72.426L62.208,72.426c-1.656-0.16-2.88-1.647-2.72-3.303l0.467-4.818
					c0.161-1.656,1.647-2.88,3.303-2.72l0,0c1.656,0.16,2.88,1.647,2.719,3.303l-0.467,4.818
					C65.351,71.363,63.864,72.587,62.208,72.426z"/>
				<g>
					<path style="fill:#571F23;" d="M62.44,71.137l-0.212-0.021c-1.046-0.101-1.819-1.04-1.718-2.086l0.43-4.438
						c0.101-1.046,1.04-1.819,2.086-1.718l0.212,0.021c1.046,0.101,1.819,1.04,1.718,2.086l-0.43,4.438
						C64.425,70.465,63.486,71.238,62.44,71.137z"/>
					<path style="opacity:0.2;fill:#FFFFFF;" d="M62.323,66.19l-0.101-0.01c-0.267-0.026-0.464-0.265-0.438-0.532l0.102-1.055
						c0.026-0.267,0.265-0.464,0.532-0.438l0.101,0.01c0.267,0.026,0.464,0.265,0.438,0.532l-0.102,1.055
						C62.829,66.019,62.59,66.216,62.323,66.19z"/>
				</g>
			</g>
			<g>
				<path style="opacity:0.1;" d="M88.709,87.622L88.709,87.622c-1.656,0.163-3.144-1.059-3.306-2.715l-0.474-4.817
					c-0.163-1.656,1.059-3.144,2.715-3.307l0,0c1.656-0.163,3.144,1.059,3.306,2.715l0.474,4.817
					C91.587,85.971,90.365,87.459,88.709,87.622z"/>
				<g>
					<path style="fill:#571F23;" d="M88.688,86.313l-0.212,0.021c-1.046,0.103-1.986-0.669-2.088-1.715l-0.437-4.437
						c-0.103-1.046,0.669-1.986,1.715-2.089l0.212-0.021c1.046-0.103,1.985,0.669,2.088,1.715l0.437,4.437
						C90.505,85.27,89.733,86.21,88.688,86.313z"/>
					<path style="opacity:0.2;fill:#FFFFFF;" d="M87.616,81.482l-0.101,0.01c-0.267,0.026-0.506-0.171-0.533-0.437L86.878,80
						c-0.026-0.267,0.171-0.506,0.437-0.533l0.101-0.01c0.267-0.026,0.506,0.171,0.533,0.437l0.104,1.055
						C88.079,81.216,87.883,81.456,87.616,81.482z"/>
				</g>
			</g>
			<g>
				<path style="opacity:0.1;" d="M100.397,101.541L100.397,101.541c-1.627-0.347-2.674-1.962-2.327-3.589l1.01-4.734
					c0.347-1.627,1.963-2.675,3.59-2.328l0,0c1.627,0.347,2.674,1.963,2.327,3.59l-1.01,4.734
					C103.64,100.841,102.024,101.889,100.397,101.541z"/>
				<g>
					<path style="fill:#571F23;" d="M100.773,100.287l-0.208-0.044c-1.028-0.219-1.689-1.24-1.47-2.267l0.93-4.361
						c0.219-1.028,1.24-1.689,2.267-1.47l0.208,0.044c1.028,0.219,1.689,1.239,1.47,2.267l-0.93,4.361
						C102.821,99.845,101.801,100.506,100.773,100.287z"/>
					<path style="opacity:0.2;fill:#FFFFFF;" d="M101.217,95.359l-0.1-0.021c-0.262-0.056-0.431-0.316-0.375-0.578l0.221-1.037
						c0.056-0.262,0.316-0.431,0.578-0.375l0.1,0.021c0.262,0.056,0.431,0.316,0.375,0.578l-0.221,1.037
						C101.74,95.246,101.479,95.415,101.217,95.359z"/>
				</g>
			</g>
			<g>
				<path style="opacity:0.1;" d="M135.911,89.817L135.911,89.817c-1.627-0.347-2.674-1.962-2.327-3.589l1.01-4.734
					c0.347-1.627,1.963-2.675,3.59-2.328l0,0c1.627,0.347,2.674,1.963,2.327,3.59l-1.01,4.734
					C139.154,89.117,137.538,90.164,135.911,89.817z"/>
				<g>
					<path style="fill:#571F23;" d="M136.287,88.562l-0.208-0.044c-1.028-0.219-1.689-1.24-1.47-2.267l0.93-4.361
						c0.219-1.028,1.24-1.689,2.268-1.47l0.208,0.044c1.028,0.219,1.689,1.239,1.47,2.267l-0.93,4.361
						C138.335,88.12,137.315,88.782,136.287,88.562z"/>
					<path style="opacity:0.2;fill:#FFFFFF;" d="M136.731,83.634l-0.1-0.021c-0.262-0.056-0.431-0.316-0.375-0.578l0.221-1.037
						c0.056-0.262,0.316-0.431,0.578-0.375l0.1,0.021c0.262,0.056,0.431,0.316,0.375,0.578l-0.221,1.037
						C137.254,83.521,136.994,83.69,136.731,83.634z"/>
				</g>
			</g>
			<g>
				<path style="opacity:0.1;" d="M119.085,96.145L119.085,96.145c-1.627-0.347-2.674-1.963-2.327-3.59l1.01-4.734
					c0.347-1.628,1.963-2.675,3.59-2.327l0,0c1.627,0.347,2.674,1.962,2.327,3.589l-1.01,4.734
					C122.328,95.445,120.712,96.493,119.085,96.145z"/>
				<g>
					<path style="fill:#571F23;" d="M119.461,94.891l-0.208-0.044c-1.028-0.219-1.689-1.239-1.47-2.267l0.93-4.361
						c0.219-1.028,1.24-1.689,2.268-1.47l0.208,0.044c1.028,0.219,1.689,1.24,1.47,2.267l-0.93,4.361
						C121.509,94.449,120.489,95.11,119.461,94.891z"/>
					<path style="opacity:0.2;fill:#FFFFFF;" d="M119.905,89.963l-0.1-0.021c-0.262-0.056-0.431-0.316-0.375-0.578l0.221-1.037
						c0.056-0.262,0.316-0.431,0.578-0.375l0.1,0.021c0.262,0.056,0.431,0.316,0.375,0.578l-0.221,1.037
						C120.428,89.85,120.167,90.019,119.905,89.963z"/>
				</g>
			</g>
			<g>
				<path style="opacity:0.1;" d="M64.137,87.215L64.137,87.215c-0.557-1.568,0.27-3.307,1.837-3.864l4.562-1.621
					c1.568-0.557,3.306,0.27,3.864,1.837l0,0c0.557,1.568-0.27,3.307-1.837,3.864l-4.562,1.621
					C66.433,89.609,64.694,88.783,64.137,87.215z"/>
				<g>
					<path style="fill:#571F23;" d="M65.403,86.878l-0.071-0.2c-0.352-0.99,0.17-2.089,1.16-2.44l4.202-1.493
						c0.99-0.352,2.088,0.17,2.44,1.161l0.071,0.2c0.352,0.99-0.17,2.089-1.161,2.44l-4.201,1.493
						C66.853,88.39,65.755,87.868,65.403,86.878z"/>
					<path style="opacity:0.2;fill:#FFFFFF;" d="M69.832,84.673l-0.034-0.096c-0.09-0.253,0.043-0.533,0.296-0.622l0.999-0.355
						c0.253-0.09,0.533,0.043,0.622,0.296l0.034,0.096c0.09,0.253-0.043,0.533-0.296,0.622l-0.999,0.355
						C70.202,85.059,69.922,84.926,69.832,84.673z"/>
				</g>
			</g>
			<g>
				<path style="opacity:0.1;" d="M83.486,106.719L83.486,106.719c-1.47-0.78-2.034-2.621-1.253-4.091l2.27-4.276
					c0.78-1.469,2.621-2.033,4.091-1.253l0,0c1.47,0.78,2.034,2.621,1.253,4.091l-2.27,4.276
					C86.797,106.936,84.956,107.5,83.486,106.719z"/>
				<g>
					<path style="fill:#571F23;" d="M84.193,105.616l-0.188-0.1c-0.928-0.493-1.285-1.656-0.792-2.584l2.091-3.938
						c0.493-0.928,1.655-1.284,2.584-0.792l0.188,0.1c0.928,0.493,1.285,1.656,0.792,2.584l-2.091,3.938
						C86.283,105.753,85.121,106.109,84.193,105.616z"/>
					<path style="opacity:0.2;fill:#FFFFFF;" d="M85.972,100.999l-0.09-0.048c-0.237-0.126-0.328-0.422-0.202-0.659l0.497-0.937
						c0.126-0.237,0.422-0.328,0.659-0.202l0.09,0.048c0.237,0.126,0.328,0.422,0.202,0.659l-0.497,0.937
						C86.505,101.034,86.209,101.125,85.972,100.999z"/>
				</g>
			</g>
			<g>
				<path style="opacity:0.1;" d="M108.752,109.079L108.752,109.079c0.109-1.66,1.557-2.93,3.217-2.82l4.831,0.318
					c1.66,0.109,2.929,1.557,2.82,3.217v0c-0.109,1.66-1.557,2.929-3.217,2.82l-4.831-0.318
					C109.912,112.187,108.643,110.739,108.752,109.079z"/>
				<g>
					<path style="fill:#571F23;" d="M110.048,109.271l0.014-0.212c0.069-1.049,0.983-1.85,2.032-1.781l4.449,0.293
						c1.049,0.069,1.85,0.983,1.781,2.032l-0.014,0.212c-0.069,1.049-0.983,1.85-2.032,1.781l-4.449-0.292
						C110.781,111.234,109.979,110.32,110.048,109.271z"/>
					<path style="opacity:0.2;fill:#FFFFFF;" d="M114.989,109.001l0.007-0.102c0.017-0.267,0.251-0.472,0.518-0.454l1.058,0.07
						c0.267,0.018,0.472,0.251,0.454,0.518l-0.007,0.102c-0.018,0.267-0.251,0.472-0.518,0.454l-1.058-0.07
						C115.175,109.501,114.971,109.268,114.989,109.001z"/>
				</g>
			</g>
			<g>
				<path style="opacity:0.1;" d="M126.232,105.103L126.232,105.103c-0.505-1.586,0.38-3.296,1.965-3.8l4.613-1.468
					c1.585-0.504,3.295,0.38,3.8,1.965l0,0c0.505,1.586-0.38,3.296-1.965,3.8l-4.613,1.468
					C128.447,107.572,126.736,106.688,126.232,105.103z"/>
				<g>
					<path style="fill:#571F23;" d="M127.508,104.808l-0.064-0.203c-0.319-1.002,0.24-2.082,1.241-2.4l4.249-1.352
						c1.001-0.319,2.081,0.24,2.4,1.241l0.064,0.202c0.319,1.002-0.24,2.082-1.241,2.4l-4.249,1.352
						C128.907,106.368,127.827,105.809,127.508,104.808z"/>
					<path style="opacity:0.2;fill:#FFFFFF;" d="M132.009,102.753l-0.031-0.097c-0.081-0.255,0.061-0.531,0.317-0.612l1.01-0.322
						c0.255-0.081,0.531,0.061,0.612,0.316l0.031,0.097c0.081,0.255-0.061,0.531-0.316,0.612l-1.01,0.321
						C132.366,103.15,132.09,103.008,132.009,102.753z"/>
				</g>
			</g>
		</g>
	</g>
	<g>
		<g>
			<path style="fill:#006365;" d="M213.481,31.414c-5.538,3.286-5.848-0.362-5.848-0.362s-3.366-12.133,0.185-16.036
				c0,0,3.537-0.901,4.726,1.507c0,0-0.32,5.112,4.057,10.471C216.602,26.994,216.953,29.354,213.481,31.414z"/>
			<g>
				<path style="fill:#ECFFDE;" d="M210.681,26.697c14.952-8.871,25.064,10.722,45.713,22.01
					c21.811,11.924,50.856,43.784,8.301,69.032s-56.596-15.515-56.607-40.372C208.077,53.834,195.729,35.568,210.681,26.697z"/>
				
					<ellipse transform="matrix(0.9927 -0.1205 0.1205 0.9927 -8.9253 30.4957)" style="opacity:0.1;" cx="247.729" cy="89.058" rx="24.076" ry="24.076"/>
				<g>
					<path style="fill:#006365;" d="M212.353,29.515c7.467-4.43,13.274-0.098,23.735,8.597c5.318,4.42,11.345,9.43,18.734,13.47
						c7.117,3.891,14.084,9.472,19.114,15.314c4.163,4.834,9.157,12.354,9.304,20.722c0.177,10.053-6.625,19.238-20.217,27.303
						c-13.592,8.064-24.914,9.631-33.652,4.658c-7.274-4.14-11.48-12.127-13.727-18.098c-2.716-7.215-4.275-16.005-4.279-24.116
						c-0.004-8.421-1.512-16.112-2.843-22.898C205.904,41.118,204.886,33.945,212.353,29.515 M210.681,26.697
						c-14.952,8.871-2.603,27.137-2.593,50.669c0.011,24.857,14.052,65.62,56.607,40.372s13.51-57.108-8.301-69.032
						C235.745,37.419,225.632,17.827,210.681,26.697L210.681,26.697z"/>
				</g>
			</g>
		</g>
		<g>
			
				<ellipse transform="matrix(0.0264 -0.9997 0.9997 0.0264 152.659 332.2608)" style="fill:#9E8A78;" cx="246.907" cy="87.758" rx="22.207" ry="22.207"/>
			<path style="opacity:0.1;fill:#FFFFFF;" d="M241.269,72.572c2.795,1.663,2.732,6.923-0.139,11.748
				c-2.872,4.825-7.465,7.389-10.259,5.726c-2.795-1.663-2.732-6.923,0.139-11.748C233.881,73.472,238.474,70.908,241.269,72.572z"
				/>
			<path style="opacity:0.1;" d="M245.415,65.603c2.384,0.382,4.738,1.206,6.939,2.516c9.332,5.553,12.395,17.619,6.842,26.951
				c-5.553,9.332-17.619,12.395-26.951,6.842c-2.201-1.31-4.049-2.985-5.521-4.898c1.812,3.961,4.801,7.432,8.827,9.827
				c10.54,6.272,24.168,2.812,30.44-7.727c6.272-10.54,2.812-24.168-7.727-30.44C254.237,66.278,249.761,65.307,245.415,65.603z"/>
		</g>
	</g>
	<g>
		<path style="fill:#7D6D5F;" d="M312.859,41.977c0,0,15.547,4.039,48.443-12.28c0,0,1.346-0.934,4.331-3.005l2.599,3.746
			l-4.627,4.077c0,0-16.888,20.647-26.718,43.593l-1.584-2.283c0,0,9.53-24.559,26.3-42.696c0,0-30.795,14.79-48.876,10.156
			L312.859,41.977z"/>
		<g>
			<path style="fill:#D44163;" d="M295.931,49.465c1.128,0.791,1.602,2.145,1.353,3.499c-0.439,2.38-0.088,5.974,4.996,8.051
				c8.081,3.302,18.817-1.478,18.328-9.148c-0.273-4.27-2.412-5.75-4.178-7.063c-0.874-0.65-1.302-1.7-1.123-2.775
				c0.363-2.172,0.884-4.724-1.883-7.995c-4.964-5.869-16.016-1.873-19.552,6.109C291.618,45.231,293.946,48.073,295.931,49.465z"/>
			<g style="opacity:0.1;">
				<path d="M320.607,51.867c-0.057-0.893-0.199-1.659-0.399-2.332c-0.011,0.304-0.01,0.596-0.048,0.928
					c-0.869,7.637-12.279,10.452-19.652,5.778c-1.617-1.025-2.626-2.131-3.231-3.232c-0.426,2.38-0.049,5.941,5.003,8.006
					C310.361,64.318,321.097,59.537,320.607,51.867z"/>
			</g>
			<path style="opacity:0.1;fill:#FFFFFF;" d="M310.593,35.839c0.043,1.262-1.54,2.34-3.536,2.408
				c-1.996,0.068-3.648-0.9-3.691-2.162c-0.043-1.262,1.54-2.34,3.536-2.408C308.898,33.609,310.55,34.577,310.593,35.839z"/>
		</g>
		<g>
			<path style="fill:#D44163;" d="M322.625,89.372c1.363,0.202,2.393,1.2,2.776,2.523c0.673,2.325,2.596,5.381,8.072,4.962
				c8.705-0.665,16.164-9.747,12.292-16.386c-2.156-3.696-4.731-4.062-6.898-4.445c-1.073-0.19-1.925-0.937-2.246-1.979
				c-0.648-2.105-1.325-4.62-5.264-6.306c-7.066-3.025-15.159,5.496-14.747,14.217C316.873,87.517,320.227,89.016,322.625,89.372z"
				/>
			<path style="opacity:0.1;" d="M345.769,80.478c0.349,5.472-5.744,11.131-12.624,11.503c-5.264,0.285-7.176-2.509-7.87-4.658
				c-0.399-1.237-1.453-2.203-2.845-2.442c-1.941-0.333-4.541-1.379-5.804-4.436c-0.032,0.502-0.039,1.007-0.015,1.512
				c0.263,5.56,3.617,7.058,6.015,7.414c1.363,0.202,2.393,1.2,2.776,2.523c0.673,2.325,2.596,5.381,8.072,4.962
				C342.175,96.192,349.632,87.117,345.769,80.478z"/>
			<path style="opacity:0.1;fill:#FFFFFF;" d="M331.704,71.835c0.043,1.262-1.54,2.34-3.536,2.408
				c-1.996,0.068-3.648-0.9-3.691-2.162c-0.043-1.262,1.54-2.34,3.536-2.408C330.008,69.605,331.661,70.573,331.704,71.835z"/>
		</g>
	</g>
	<g>
		<path style="fill:#7D6D5F;" d="M256.599,430.073c4.643,19.898,1.406,28.933,1.406,28.933l1.291,0.251
			c2.951-8.292,1.856-19.79-0.124-29.629C258.316,429.785,257.458,429.934,256.599,430.073z"/>
		<g>
			<path style="fill:#D44163;" d="M258.924,475.266c1.11-0.817,2.544-0.835,3.748-0.167c2.116,1.175,5.634,1.988,9.224-2.168
				c5.707-6.607,4.599-18.307-2.828-20.288c-4.134-1.103-6.219,0.453-8.026,1.708c-0.895,0.621-2.026,0.692-2.988,0.179
				c-1.943-1.036-4.196-2.344-8.178-0.764c-7.145,2.834-6.881,14.583-0.443,20.479C253.536,478.004,256.972,476.703,258.924,475.266
				z"/>
			<g style="opacity:0.1;">
				<path d="M269.067,452.643c-0.865-0.231-1.635-0.34-2.337-0.365c0.284,0.107,0.561,0.2,0.864,0.342
					c6.962,3.258,5.992,14.97-0.789,20.469c-1.488,1.206-2.857,1.81-4.093,2.032c2.12,1.163,5.616,1.941,9.183-2.19
					C277.602,466.324,276.494,454.624,269.067,452.643z"/>
			</g>
			<path style="opacity:0.1;fill:#FFFFFF;" d="M250.684,457.024c1.21,0.362,1.727,2.206,1.155,4.119
				c-0.572,1.913-2.016,3.171-3.226,2.809s-1.727-2.206-1.155-4.119C248.03,457.92,249.474,456.662,250.684,457.024z"/>
		</g>
	</g>
	<g>
		<g>
			<path style="fill:#00A291;" d="M466.352,31.629c0.762-5.278-0.768-10.379-3.857-14.375c-4.094,2.959-7.003,7.419-7.765,12.697
				c-0.762,5.278,0.768,10.379,3.857,14.375C462.681,41.368,465.59,36.907,466.352,31.629z"/>
			<path style="fill:#7D6D5F;" d="M447.773,60.208c0,0,6.209-19.597,24.725-26.693l1.701,5.468l-2.245-1.489
				c0,0-13.951,1.552-22.881,23.855L447.773,60.208z"/>
			<path style="fill:#00A291;" d="M470.789,46.205c-5.05-1.714-10.344-1.143-14.838,1.164c2.161,4.566,6.014,8.241,11.064,9.955
				c5.05,1.714,10.344,1.143,14.838-1.164C479.692,51.595,475.839,47.919,470.789,46.205z"/>
		</g>
		<g>
			<polygon style="fill:#9E8A78;" points="375.671,133.977 372.83,135.133 370.477,136.09 372.717,136.601 372.186,138.93 
				375.284,139.01 374.668,141.713 377.253,141.044 377.082,145.13 381.375,138.967 			"/>
			<g>
				<path style="fill:#BAD481;" d="M455.31,53.098c19.547,17.157-3.056,27.965-10.763,59.911
					c-7.751,32.129-18.553,41.635-32.724,42.54c-13.926,0.89-32.451-15.934-32.451-15.934s-19.085-16.186-20.009-30.11
					c-0.94-14.169,7.084-26.112,37.937-37.965C427.978,59.755,435.763,35.94,455.31,53.098z"/>
				<path style="opacity:0.05;" d="M432.384,107.423c-18.014,29.565-31.79,36.085-46.149,33.267
					c-5.184-1.018-10.214-4.551-14.506-8.611c4.104,4.529,7.644,7.535,7.644,7.535s18.524,16.824,32.451,15.934
					c14.171-0.905,24.973-10.411,32.724-42.54c4.42-18.324,13.739-29.692,17.196-39.294
					C455.128,82.118,442.485,90.845,432.384,107.423z"/>
			</g>
		</g>
	</g>
	<g>
		<g>
			<path style="fill:#9E8A78;" d="M75.704,181.193c-7.596-8.308-8.327-25.58-8.327-25.58l-3.533,2.741
				c2.379,13.601,5.8,20.398,9.451,24.411C74.066,182.259,74.869,181.736,75.704,181.193z"/>
			<path style="fill:#00A291;" d="M68.645,171.906c0,0-23.208,17.617-44.054-12.292C24.591,159.615,54.799,144.687,68.645,171.906z"
				/>
		</g>
		<g>
			<path style="fill:#BAD481;" d="M114.168,248.431c12.418-7.23,23.497-5.044,28.575-16.303
				c13.638-30.24-8.539-82.307-37.435-78.919c-16.543,1.94-20.457,15.725-33.129,23.104c-12.672,7.378-26.593,3.977-36.447,17.406
				c-17.212,23.457,17.121,68.447,50.152,71.514C98.181,266.375,101.75,255.661,114.168,248.431z"/>
			<path style="opacity:0.1;fill:#FFFFFF;" d="M120.429,180.553c-3.297,3.131-9.762,1.675-14.44-3.251
				c-4.678-4.926-5.798-11.458-2.502-14.588c3.297-3.131,9.762-1.675,14.44,3.251C122.606,170.891,123.726,177.423,120.429,180.553z
				"/>
			<path style="opacity:0.05;" d="M141.072,230.708c-8.331,9.117-18.179,3.59-32.231,6.593c-14.052,3.003-20.78,12.073-32.11,7.158
				c-19.875-8.622-34.705-34.406-36.015-55.975c-1.75,1.395-3.418,3.101-4.984,5.234c-17.212,23.457,17.121,68.447,50.152,71.514
				c12.298,1.142,15.866-9.572,28.284-16.802c12.418-7.23,23.497-5.045,28.575-16.303c0.937-2.077,1.699-4.26,2.307-6.518
				C143.835,227.426,142.511,229.134,141.072,230.708z"/>
		</g>
	</g>
	<g>
		<g>
			<path style="fill:#00A291;" d="M287.174,184.096c0,0,28.487,6.12,19.389,41.423C306.563,225.52,275.554,212.337,287.174,184.096z
				"/>
			<path style="opacity:0.05;" d="M284.587,195.502c-0.637,20.4,21.977,30.018,21.977,30.018c1.147-4.449,1.693-8.433,1.778-12.001
				C302.725,211.978,289.887,207.261,284.587,195.502z"/>
		</g>
		<g>
			<path style="fill:#FFD54D;" d="M312.749,289.644c11.3-15.068,15.726-28.914,8.931-46.618
				c-6.795-17.704,0.733-19.335-6.147-24.495c-6.88-5.159-6.337,2.524-25.236,0.959c-18.899-1.565-30.952,6.561-42.252,21.629
				c-11.3,15.068-15.726,28.914-8.931,46.618c6.795,17.704-0.733,19.335,6.146,24.495c6.88,5.16,6.337-2.524,25.236-0.959
				C289.396,312.838,301.449,304.712,312.749,289.644L312.749,289.644z"/>
			<path style="opacity:0.05;" d="M321.407,243.298c-0.789-2.056-1.379-3.888-1.827-5.541c0.101,0.614,0.212,1.243,0.341,1.902
				c3.636,18.612-3.115,31.486-16.847,44.376l0,0c-13.732,12.89-27.008,18.812-45.352,14.007c-8.39-2.198-13.104-1.787-16.317-1.295
				c1.819,9.739-1.941,11.615,3.583,15.757c6.88,5.16,6.337-2.524,25.236-0.959c18.899,1.565,30.952-6.561,42.252-21.629v0
				C323.777,274.849,328.202,261.003,321.407,243.298z"/>
		</g>
	</g>
	<g>
		<g>
			<path style="fill:#FF616C;" d="M158.118,36.279c3.925-2.846,16.274-8.97,19.056,4.892c2.64,13.157,3.57,19.95-1.545,23.658
				c-5.115,3.708-10.526,0.163-20.683-7.544C144.246,49.164,154.193,39.125,158.118,36.279z"/>
			<g>
				<g>
					<path style="opacity:0.1;" d="M155.653,52.175c0.398,0.157,2.628,1.522,2.452,2.049c-0.176,0.527-2.693,0.017-3.09-0.14
						c-0.397-0.157-0.857-0.822-0.681-1.349S155.255,52.018,155.653,52.175z"/>
					<path style="fill:#FFEDBD;" d="M155.593,52.618c0.276,0.109,2.034,1.078,1.934,1.378s-2.021-0.185-2.296-0.293
						c-0.276-0.109-0.418-0.44-0.318-0.739C155.013,52.664,155.317,52.509,155.593,52.618z"/>
				</g>
				<g>
					<path style="opacity:0.1;" d="M171.442,39.542c0.32,0.3,1.959,2.438,1.622,2.863c-0.337,0.425-2.522-1.025-2.842-1.325
						c-0.32-0.3-0.532-1.1-0.195-1.524C170.363,39.131,171.122,39.241,171.442,39.542z"/>
					<path style="fill:#FFEDBD;" d="M171.241,39.932c0.222,0.208,1.548,1.794,1.357,2.035c-0.192,0.241-1.828-0.953-2.05-1.161
						c-0.222-0.208-0.246-0.572-0.055-0.814C170.684,39.751,171.019,39.724,171.241,39.932z"/>
				</g>
				<g>
					<path style="opacity:0.1;" d="M161.507,53.71c0.252,0.369,1.419,2.846,1.005,3.18c-0.415,0.334-2.254-1.601-2.506-1.971
						c-0.252-0.369-0.297-1.2,0.117-1.534C160.538,53.052,161.255,53.341,161.507,53.71z"/>
					<path style="fill:#FFEDBD;" d="M161.232,54.043c0.174,0.256,1.149,2.119,0.913,2.309c-0.235,0.19-1.592-1.366-1.766-1.622
						s-0.125-0.617,0.11-0.807C160.725,53.734,161.057,53.787,161.232,54.043z"/>
				</g>
				<g>
					<path style="opacity:0.1;" d="M173.654,59.552c0.252,0.369,1.42,2.846,1.005,3.18c-0.414,0.334-2.254-1.601-2.506-1.971
						c-0.252-0.369-0.297-1.2,0.117-1.534C172.685,58.894,173.402,59.183,173.654,59.552z"/>
					<path style="fill:#FFEDBD;" d="M173.379,59.886c0.174,0.256,1.149,2.119,0.913,2.309c-0.235,0.19-1.592-1.366-1.766-1.622
						s-0.125-0.617,0.11-0.807C172.872,59.576,173.205,59.63,173.379,59.886z"/>
				</g>
				<g>
					<path style="opacity:0.1;" d="M156.124,47.718c0.172,0.268,0.91,2.082,0.558,2.349c-0.352,0.267-1.662-1.115-1.834-1.383
						c-0.171-0.268-0.146-0.889,0.207-1.156S155.953,47.451,156.124,47.718z"/>
					<path style="fill:#FFEDBD;" d="M155.882,47.979c0.119,0.185,0.75,1.547,0.55,1.698c-0.2,0.152-1.156-0.964-1.275-1.149
						c-0.119-0.186-0.053-0.459,0.147-0.61C155.505,47.766,155.764,47.794,155.882,47.979z"/>
				</g>
				<g>
					<path style="opacity:0.1;" d="M164.162,50.367c0.171,0.268,0.91,2.082,0.557,2.349s-1.662-1.115-1.834-1.383
						c-0.172-0.268-0.146-0.889,0.207-1.156C163.445,49.91,163.99,50.099,164.162,50.367z"/>
					<path style="fill:#FFEDBD;" d="M163.92,50.627c0.119,0.186,0.75,1.547,0.55,1.698c-0.2,0.152-1.156-0.964-1.275-1.149
						c-0.119-0.186-0.053-0.459,0.147-0.61C163.542,50.415,163.801,50.442,163.92,50.627z"/>
				</g>
				<g>
					<path style="opacity:0.1;" d="M165.345,45.443c0.044,0.323-0.041,2.305-0.466,2.372c-0.425,0.068-1.029-1.805-1.073-2.127
						c-0.044-0.323,0.235-0.867,0.66-0.934C164.891,44.686,165.301,45.12,165.345,45.443z"/>
					<path style="fill:#FFEDBD;" d="M165.021,45.559c0.03,0.224,0.036,1.748-0.205,1.787c-0.241,0.038-0.639-1.424-0.669-1.647
						c-0.03-0.224,0.141-0.436,0.382-0.475C164.771,45.185,164.991,45.335,165.021,45.559z"/>
				</g>
				<g>
					<path style="opacity:0.1;" d="M167.363,54.293c0.159,0.277,0.813,2.13,0.448,2.377c-0.364,0.247-1.609-1.206-1.768-1.482
						c-0.159-0.277-0.104-0.896,0.26-1.143C166.668,53.797,167.204,54.016,167.363,54.293z"/>
					<path style="fill:#FFEDBD;" d="M167.109,54.54c0.11,0.192,0.678,1.586,0.471,1.727c-0.207,0.14-1.11-1.027-1.22-1.219
						c-0.11-0.192-0.032-0.461,0.175-0.601C166.742,54.306,166.999,54.348,167.109,54.54z"/>
				</g>
				<g>
					<path style="opacity:0.1;" d="M164.535,41.484c0.293,0.07,1.967,0.86,1.874,1.316c-0.093,0.456-1.917,0.405-2.21,0.335
						c-0.293-0.07-0.662-0.547-0.569-1.002C163.723,41.676,164.242,41.413,164.535,41.484z"/>
					<path style="fill:#FFEDBD;" d="M164.52,41.854c0.203,0.049,1.516,0.584,1.463,0.843c-0.053,0.259-1.451,0.143-1.654,0.094
						c-0.203-0.049-0.325-0.298-0.272-0.557C164.109,41.975,164.317,41.805,164.52,41.854z"/>
				</g>
				<g>
					<path style="opacity:0.1;" d="M168.316,49.096c0.213,0.23,1.239,1.871,0.936,2.202s-1.819-0.773-2.032-1.003
						c-0.213-0.23-0.29-0.847,0.013-1.178S168.104,48.866,168.316,49.096z"/>
					<path style="fill:#FFEDBD;" d="M168.121,49.4c0.148,0.159,0.993,1.375,0.821,1.564c-0.172,0.188-1.296-0.723-1.444-0.882
						c-0.148-0.159-0.128-0.441,0.044-0.629C167.715,49.264,167.974,49.241,168.121,49.4z"/>
				</g>
				<g>
					<path style="opacity:0.1;" d="M174.488,49.899c0.102,0.306,0.386,2.266-0.017,2.426c-0.404,0.159-1.342-1.542-1.445-1.849
						c-0.102-0.306,0.07-0.9,0.474-1.059C173.903,49.257,174.386,49.593,174.488,49.899z"/>
					<path style="fill:#FFEDBD;" d="M174.192,50.084c0.071,0.213,0.359,1.705,0.129,1.795c-0.229,0.09-0.889-1.255-0.96-1.467
						c-0.071-0.212,0.057-0.458,0.287-0.549S174.122,49.871,174.192,50.084z"/>
				</g>
				<g>
					<path style="opacity:0.1;" d="M171.476,36.482c0.293,0.07,1.967,0.86,1.874,1.316c-0.093,0.456-1.917,0.405-2.21,0.335
						c-0.293-0.07-0.662-0.547-0.569-1.002C170.664,36.675,171.183,36.412,171.476,36.482z"/>
					<path style="fill:#FFEDBD;" d="M171.46,36.852c0.203,0.049,1.516,0.584,1.463,0.844c-0.053,0.259-1.451,0.143-1.654,0.094
						c-0.203-0.049-0.325-0.298-0.272-0.557C171.05,36.974,171.257,36.804,171.46,36.852z"/>
				</g>
				<g>
					<path style="opacity:0.1;" d="M169.681,44.11c0.16,0.276,0.82,2.126,0.456,2.375c-0.364,0.249-1.613-1.198-1.773-1.474
						c-0.16-0.276-0.107-0.896,0.256-1.145S169.521,43.833,169.681,44.11z"/>
					<path style="fill:#FFEDBD;" d="M169.428,44.358c0.111,0.191,0.683,1.583,0.477,1.724c-0.206,0.141-1.114-1.021-1.224-1.213
						c-0.111-0.191-0.033-0.461,0.173-0.602C169.06,44.126,169.317,44.167,169.428,44.358z"/>
				</g>
				<g>
					<path style="opacity:0.1;" d="M163.871,59.038c0.293,0.071,1.966,0.863,1.873,1.319s-1.918,0.402-2.211,0.331
						c-0.293-0.071-0.661-0.548-0.568-1.003C163.059,59.229,163.578,58.967,163.871,59.038z"/>
					<path style="fill:#FFEDBD;" d="M163.855,59.408c0.203,0.049,1.515,0.587,1.462,0.846c-0.053,0.259-1.451,0.141-1.654,0.092
						c-0.203-0.049-0.324-0.299-0.271-0.558C163.444,59.529,163.652,59.359,163.855,59.408z"/>
				</g>
				<g>
					<path style="opacity:0.1;" d="M169.278,61.102c0.227,0.212,1.359,1.768,1.079,2.122c-0.28,0.354-1.865-0.628-2.093-0.84
						c-0.228-0.213-0.345-0.822-0.065-1.176C168.479,60.855,169.051,60.89,169.278,61.102z"/>
					<path style="fill:#FFEDBD;" d="M169.104,61.421c0.158,0.147,1.081,1.294,0.922,1.495c-0.159,0.201-1.341-0.619-1.498-0.766
						c-0.158-0.147-0.156-0.43,0.003-0.631C168.689,61.317,168.946,61.273,169.104,61.421z"/>
				</g>
				<g>
					<path style="opacity:0.1;" d="M172.179,54.157c0.174,0.266,0.926,2.073,0.576,2.343c-0.35,0.27-1.671-1.098-1.845-1.364
						s-0.153-0.888,0.198-1.158C171.458,53.707,172.005,53.891,172.179,54.157z"/>
					<path style="fill:#FFEDBD;" d="M171.939,54.42c0.12,0.184,0.762,1.539,0.563,1.692c-0.199,0.153-1.164-0.952-1.284-1.137
						c-0.12-0.184-0.057-0.458,0.143-0.611S171.818,54.236,171.939,54.42z"/>
				</g>
				<g>
					<path style="opacity:0.1;" d="M175.252,44.537c0.174,0.266,0.926,2.072,0.576,2.343c-0.35,0.27-1.671-1.098-1.845-1.364
						c-0.174-0.266-0.153-0.888,0.198-1.158C174.532,44.087,175.079,44.271,175.252,44.537z"/>
					<path style="fill:#FFEDBD;" d="M175.012,44.8c0.12,0.184,0.762,1.539,0.563,1.693c-0.199,0.153-1.164-0.952-1.284-1.137
						c-0.12-0.184-0.057-0.458,0.143-0.612C174.633,44.591,174.892,44.616,175.012,44.8z"/>
				</g>
				<g>
					<path style="opacity:0.1;" d="M177.403,54.667c-0.072,0.317-0.838,2.117-1.255,2.005c-0.417-0.112-0.327-2.093-0.255-2.41
						c0.072-0.317,0.518-0.706,0.935-0.594C177.245,53.78,177.475,54.35,177.403,54.667z"/>
					<path style="fill:#FFEDBD;" d="M177.063,54.641c-0.05,0.219-0.574,1.633-0.811,1.569c-0.237-0.064-0.097-1.58-0.047-1.8
						c0.05-0.219,0.282-0.346,0.519-0.282C176.961,54.193,177.113,54.422,177.063,54.641z"/>
				</g>
				<g>
					<path style="opacity:0.1;" d="M160.491,48.09c0.078,0.315,0.211,2.294-0.204,2.416c-0.415,0.122-1.219-1.659-1.297-1.974
						c-0.078-0.315,0.139-0.891,0.553-1.013C159.958,47.396,160.413,47.775,160.491,48.09z"/>
					<path style="fill:#FFEDBD;" d="M160.182,48.246c0.054,0.218,0.226,1.731-0.009,1.8c-0.236,0.069-0.789-1.331-0.844-1.549
						c-0.054-0.218,0.093-0.451,0.328-0.521C159.893,47.907,160.128,48.028,160.182,48.246z"/>
				</g>
			</g>
		</g>
		<path style="opacity:0.15;" d="M176.63,63.976c0.183-0.179,0.355-0.364,0.517-0.555c0.055-0.064,0.113-0.126,0.166-0.193
			c0.193-0.242,0.369-0.495,0.531-0.757c0.056-0.09,0.105-0.186,0.157-0.279c0.106-0.187,0.205-0.379,0.296-0.577
			c0.055-0.118,0.109-0.236,0.159-0.357c0.09-0.219,0.17-0.446,0.244-0.677c0.06-0.186,0.114-0.377,0.164-0.571
			c0.051-0.196,0.1-0.394,0.142-0.598c0.036-0.178,0.068-0.361,0.097-0.546c0.027-0.168,0.049-0.34,0.07-0.513
			c0.05-0.413,0.086-0.842,0.106-1.288c0.005-0.097,0.013-0.189,0.016-0.288c0.008-0.262,0.008-0.534,0.007-0.807
			c-0.001-0.13-0.002-0.261-0.004-0.394c-0.006-0.293-0.014-0.589-0.029-0.896c-0.001-0.023-0.003-0.048-0.005-0.072
			c-0.037-0.708-0.1-1.452-0.184-2.233c-0.003-0.027-0.005-0.052-0.008-0.079c-0.045-0.406-0.095-0.821-0.151-1.246
			c-0.48,4.985-1.88,8.077-5.196,9.77c-5.627,2.872-10.425-1.467-19.266-10.654c-0.347-0.36-0.656-0.718-0.946-1.075
			c0.806-0.913,1.574-1.936,2.279-3.062c1.508-2.41,2.512-4.939,3.009-7.308l0.12-0.087c-0.088,1.639,0.148,3.493,0.753,5.359
			c0.652,2.009,1.626,3.719,2.738,4.965c0.226-1.821,0.019-3.98-0.686-6.156c-0.574-1.77-1.399-3.307-2.348-4.5
			c1.195,1.067,2.765,1.964,4.572,2.521c1.885,0.582,3.732,0.703,5.309,0.435c-1.237-1.252-2.979-2.315-5.02-2.944
			c-0.178-0.055-0.355-0.102-0.532-0.148c1.275-0.124,2.597-0.377,3.935-0.788c2.329-0.715,4.398-1.793,6.09-3.075
			c-0.605-0.53-1.256-0.931-1.941-1.22c-1.765,0.006-3.663,0.288-5.592,0.88c-1.345,0.413-2.602,0.949-3.753,1.574
			c-1.25,0.457-2.801,0.887-3.289,0.432c-0.07-0.065-0.14-0.154-0.212-0.253c-0.306,0.197-0.583,0.387-0.828,0.565
			c-0.237,0.172-0.497,0.371-0.773,0.594c0.057,0.11,0.106,0.216,0.135,0.311c0.241,0.803-1.211,2.665-2.148,3.757
			c-0.227,0.244-0.451,0.494-0.672,0.755c-0.051,0.055-0.08,0.085-0.08,0.085l0.023-0.017c-0.68,0.81-1.333,1.693-1.936,2.657
			c-0.358,0.571-0.681,1.151-0.982,1.732c-0.23-0.53-0.411-1.054-0.536-1.57c-0.18,0.406-0.34,0.819-0.476,1.239
			c-0.001,0.002-0.001,0.004-0.002,0.006c-0.408,1.26-0.603,2.577-0.485,3.913c-0.001,0.002-0.001,0.004-0.002,0.007
			c0.06,0.673,0.191,1.351,0.426,2.029c0.002-0.001,0.003-0.002,0.005-0.004c0.142,0.412,0.325,0.824,0.538,1.235
			c0.037,0.07,0.07,0.14,0.109,0.211c0.084,0.153,0.179,0.306,0.274,0.458c0.063,0.101,0.125,0.201,0.193,0.301
			c0.092,0.137,0.19,0.273,0.291,0.41c0.087,0.118,0.178,0.236,0.273,0.353c0.099,0.123,0.2,0.247,0.307,0.369
			c0.116,0.134,0.24,0.267,0.366,0.401c0.102,0.109,0.203,0.218,0.312,0.326c0.157,0.156,0.326,0.311,0.497,0.466
			c0.095,0.086,0.185,0.173,0.284,0.259c0.28,0.242,0.573,0.483,0.888,0.721c10.156,7.708,15.568,11.253,20.683,7.544
			c0.284-0.206,0.543-0.425,0.791-0.651C176.492,64.112,176.561,64.044,176.63,63.976z"/>
		<path style="fill:#007D70;" d="M165.387,32.362c-1.345,0.413-2.602,0.949-3.753,1.574c-1.25,0.457-2.801,0.887-3.289,0.432
			c-0.859-0.802-1.883-4.468-1.883-4.468s-0.389-0.231-1.52,0.589l-0.261,0.189c-1.131,0.82-1.084,1.299-1.084,1.299
			s2.719,2.437,3.07,3.608c0.241,0.803-1.211,2.665-2.148,3.757c-0.227,0.244-0.451,0.494-0.672,0.755
			c-0.051,0.055-0.079,0.085-0.079,0.085l0.023-0.017c-0.68,0.81-1.333,1.693-1.936,2.657c-1.679,2.683-2.74,5.517-3.162,8.109
			c2.235-1.36,4.47-3.597,6.287-6.502c1.508-2.41,2.512-4.939,3.008-7.308l0.12-0.087c-0.088,1.639,0.148,3.492,0.753,5.359
			c0.651,2.009,1.626,3.719,2.738,4.965c0.226-1.821,0.019-3.98-0.686-6.156c-0.574-1.771-1.399-3.307-2.348-4.5
			c1.195,1.067,2.765,1.964,4.572,2.521c1.885,0.582,3.732,0.703,5.309,0.435c-1.237-1.252-2.979-2.315-5.02-2.944
			c-0.178-0.055-0.355-0.102-0.532-0.148c1.275-0.124,2.597-0.377,3.935-0.788c2.873-0.882,5.361-2.312,7.217-4.002
			C171.531,31.256,168.497,31.407,165.387,32.362z"/>
	</g>
	<g>
		<g>
			
				<ellipse transform="matrix(0.7071 -0.7071 0.7071 0.7071 -44.3229 352.08)" style="fill:#FFB13B;" cx="402.837" cy="229.543" rx="56.372" ry="56.372"/>
			
				<ellipse transform="matrix(0.9855 -0.1695 0.1695 0.9855 -26.1873 70.2557)" style="opacity:0.1;fill:#FFFFFF;" cx="398.334" cy="188.484" rx="17.722" ry="9.904"/>
			<path style="opacity:0.05;" d="M402.837,261.18c-26.883,0-49.355-18.823-54.995-44.005c-0.892,3.982-1.378,8.117-1.378,12.367
				c0,31.134,25.239,56.373,56.372,56.373c31.134,0,56.372-25.239,56.372-56.373c0-4.251-0.486-8.386-1.378-12.367
				C452.192,242.357,429.72,261.18,402.837,261.18z"/>
		</g>
		<path style="fill:#571F23;" d="M440.669,192.272c-4.851-0.715-7.442-4.417-7.442-4.417s1.802-2.271,7.099-3.444
			c2.21-0.489,3.951,1.871,2.808,3.825C442.469,189.374,441.653,190.722,440.669,192.272z"/>
	</g>
	<g>
		<g>
			
				<ellipse transform="matrix(0.7071 -0.7071 0.7071 0.7071 -70.1629 204.3889)" style="fill:#FFD54D;" cx="211.638" cy="186.889" rx="47.139" ry="47.139"/>
			
				<ellipse transform="matrix(0.2257 -0.9742 0.9742 0.2257 -18.1945 350.8855)" style="fill:#FFF1C2;" cx="211.638" cy="186.889" rx="41.927" ry="41.927"/>
			
				<ellipse transform="matrix(0.226 -0.9741 0.9741 0.226 -18.2444 350.8155)" style="fill:#FFF8E0;" cx="211.638" cy="186.889" rx="38.813" ry="38.813"/>
		</g>
		<g>
			<path style="fill:#FFD54D;" d="M216.712,179.98l18.248-17.129c0.971-0.912,0.949-2.476-0.066-3.339
				c-5.576-4.741-12.616-7.808-20.349-8.427c-1.325-0.106-2.444,0.985-2.402,2.314l0.791,25.017
				C212.996,180.345,215.304,181.301,216.712,179.98z"/>
			<path style="fill:#FFD54D;" d="M204.729,181.814L187.6,163.566c-0.912-0.971-2.476-0.949-3.339,0.066
				c-4.741,5.576-7.808,12.616-8.427,20.349c-0.106,1.325,0.985,2.444,2.314,2.402l25.017-0.791
				C205.094,185.531,206.05,183.222,204.729,181.814z"/>
			<path style="fill:#FFD54D;" d="M247.442,183.981c-0.619-7.733-3.686-14.774-8.428-20.349c-0.863-1.015-2.428-1.037-3.339-0.066
				l-17.129,18.248c-1.322,1.408-0.365,3.717,1.565,3.778l25.017,0.791C246.457,186.425,247.548,185.306,247.442,183.981z"/>
			<path style="fill:#FFD54D;" d="M208.73,151.084c-7.733,0.619-14.774,3.686-20.349,8.428c-1.015,0.863-1.037,2.428-0.065,3.339
				l18.248,17.129c1.408,1.322,3.717,0.365,3.778-1.565l0.791-25.017C211.174,152.069,210.055,150.978,208.73,151.084z"/>
			<path style="fill:#FFD54D;" d="M212.935,195.362l-0.791,25.017c-0.042,1.329,1.077,2.42,2.402,2.314
				c7.733-0.62,14.774-3.686,20.349-8.428c1.015-0.863,1.037-2.428,0.066-3.339l-18.248-17.129
				C215.304,192.476,212.996,193.432,212.935,195.362z"/>
			<path style="fill:#FFD54D;" d="M218.547,191.963l17.129,18.248c0.912,0.971,2.476,0.949,3.339-0.066
				c4.741-5.576,7.808-12.616,8.428-20.349c0.106-1.325-0.985-2.444-2.314-2.402l-25.017,0.791
				C218.181,188.247,217.225,190.555,218.547,191.963z"/>
			<path style="fill:#FFD54D;" d="M203.164,188.186l-25.017-0.791c-1.329-0.042-2.42,1.077-2.314,2.402
				c0.619,7.733,3.686,14.774,8.428,20.349c0.863,1.015,2.428,1.037,3.339,0.066l17.129-18.248
				C206.05,190.555,205.094,188.247,203.164,188.186z"/>
			<path style="fill:#FFD54D;" d="M206.563,193.798l-18.248,17.129c-0.971,0.912-0.949,2.476,0.065,3.339
				c5.576,4.741,12.616,7.808,20.349,8.428c1.325,0.106,2.444-0.985,2.402-2.314l-0.791-25.017
				C210.28,193.432,207.971,192.476,206.563,193.798z"/>
		</g>
	</g>
	<g>
		<g>
			<path style="fill:#FFB13B;" d="M402.927,371.953c35.728-7.02,59.207-41.215,53.189-76.899c-0.168-0.996-1.145-1.653-2.136-1.458
				L326.02,318.74c-0.991,0.195-1.647,1.172-1.426,2.158C332.527,356.206,367.199,378.974,402.927,371.953z"/>
			<path style="fill:#FFE5BD;" d="M401.497,364.68c32.315-6.35,53.364-37.694,47.014-70.009l-117.023,22.995
				C337.838,349.981,369.182,371.03,401.497,364.68z"/>
			<path style="fill:#FFF3E0;" d="M400.643,360.333c29.915-5.878,49.4-34.894,43.522-64.808l-108.331,21.287
				C341.713,346.726,370.728,366.211,400.643,360.333z"/>
		</g>
		<g>
			<g>
				<path style="fill:#FFB13B;" d="M394.329,318.821l5.314,32.767c0.282,1.741,2.092,2.86,3.878,2.366
					c10.421-2.885,19.268-8.768,25.684-16.437c1.168-1.396,0.798-3.438-0.764-4.363l-29.344-17.384
					C396.833,314.428,393.919,316.293,394.329,318.821z"/>
				<path style="fill:#FFB13B;" d="M401.137,312.889l28.099,19.141c1.496,1.019,3.63,0.57,4.552-0.983
					c5.06-8.53,7.456-18.516,6.326-28.746c-0.194-1.753-1.973-2.916-3.78-2.504l-34.021,7.755
					C399.687,308.151,398.969,311.412,401.137,312.889z"/>
				<path style="fill:#FFB13B;" d="M379.127,312.109l-34.426,5.695c-1.829,0.303-3.036,2.052-2.552,3.748
					c2.825,9.897,8.821,18.234,16.733,24.215c1.44,1.089,3.586,0.697,4.585-0.813l18.766-28.35
					C383.681,314.416,381.783,311.669,379.127,312.109z"/>
				<path style="fill:#FFB13B;" d="M385.212,318.498l-20.584,27.195c-1.096,1.448-0.666,3.478,0.944,4.328
					c8.84,4.671,19.256,6.769,29.993,5.496c1.84-0.218,3.092-1.939,2.694-3.657l-7.48-32.341
					C390.203,317.023,386.8,316.4,385.212,318.498z"/>
			</g>
			<g>
				<path style="opacity:0.05;" d="M428.91,333.505c-0.107,0.336-0.265,0.664-0.505,0.962c-6.287,7.774-15.035,13.804-25.406,16.863
					c-1.493,0.44-3.01-0.265-3.645-1.528l0.29,1.786c0.282,1.741,2.092,2.86,3.878,2.366c10.421-2.885,19.268-8.768,25.684-16.437
					C430.243,336.276,430.06,334.529,428.91,333.505z"/>
				<path style="opacity:0.05;" d="M440.113,302.302c-0.096-0.867-0.581-1.587-1.263-2.046c0.99,9.8-1.243,19.386-5.971,27.667
					c-0.895,1.568-3.022,2.052-4.535,1.059l-28.414-18.67c-0.021-0.014-0.038-0.031-0.059-0.045
					c-0.086,0.967,0.306,1.97,1.265,2.624l28.099,19.141c1.496,1.019,3.63,0.57,4.552-0.983
					C438.848,322.517,441.243,312.531,440.113,302.302z"/>
				<path style="opacity:0.05;" d="M381.561,312.691c0.016,0.544-0.126,1.111-0.469,1.649L362.8,342.999
					c-0.974,1.526-3.113,1.953-4.571,0.889c-5.204-3.799-9.608-8.611-12.88-14.213c3.238,6.366,7.895,11.83,13.533,16.091
					c1.44,1.089,3.586,0.697,4.585-0.812l18.766-28.35C383.164,315.198,382.708,313.565,381.561,312.691z"/>
				<g>
					<path style="fill:#FFB13B;" d="M397.28,347.625l-6.5-28.107c-0.141-0.61-0.453-1.106-0.864-1.48L397.28,347.625z"/>
					<path style="opacity:0.05;" d="M398.26,351.86l-0.517-2.234c0.221,1.609-0.945,3.166-2.673,3.4
						c-10.715,1.452-21.164-0.473-30.081-4.996c-0.383-0.194-0.697-0.46-0.946-0.765c-0.08,1.095,0.454,2.188,1.528,2.756
						c8.84,4.671,19.256,6.769,29.993,5.496C397.405,355.298,398.657,353.578,398.26,351.86z"/>
				</g>
			</g>
		</g>
	</g>
	<g>
		<path style="fill:#00A291;" d="M241.364,338.272c0,0-8.02-8.073-13.229-7.565c-5.209,0.508,9.356,12.525,9.356,12.525
			s-14.275-9.041-17.442-6.854c-3.167,2.187,15.225,12.629,15.225,12.629s-23.739-10.128-25.956-4.354
			c-2.216,5.775,21.882,14.967,21.882,14.967s-19.105-4.429-18.214-0.685c0.891,3.744,15.998,6.46,15.998,6.46
			s-17.314-0.698-13.783,3.165s13.343,3.113,13.343,3.113s7.296-2.214,12.028-14.544
			C245.306,344.799,241.364,338.272,241.364,338.272z"/>
		<g>
			<path style="fill:#502F69;" d="M256.214,334.215c-0.301-1.907-1.974-3.352-3.957-3.313l-0.146,0.003
				c-1.995,0.039-3.574,1.565-3.758,3.523c-0.48-0.676-1.161-1.181-1.963-1.448c-0.996-0.33-2.06-0.251-2.992,0.217
				c-0.045,0.021-0.201,0.105-0.28,0.147c-1.652,0.921-2.394,2.893-1.836,4.639c-1.504-0.904-3.514-0.695-4.811,0.569l-0.001-0.002
				l-0.043,0.046c-0.022,0.021-0.042,0.043-0.065,0.065l-0.022,0.024c-0.022,0.022-0.044,0.046-0.067,0.069l-0.036,0.039l0,0.001
				c-1.178,1.315-1.319,3.252-0.398,4.711c-1.682-0.491-3.553,0.204-4.478,1.751l-0.046,0.074c-0.982,1.587-0.72,3.568,0.541,4.834
				c-1.741-0.213-3.509,0.802-4.189,2.522c-0.016,0.044-0.083,0.225-0.097,0.266c-0.604,1.694,0.064,3.533,1.538,4.503
				c-1.771,0.137-3.261,1.458-3.557,3.289l-0.024,0.149c-0.007,0.04-0.012,0.079-0.017,0.12c-0.229,1.743,0.759,3.38,2.356,4.048
				c-1.727,0.478-2.967,2.115-2.883,3.967c0.001,0.016,0.006,0.132,0.007,0.163c0.094,1.88,1.49,3.349,3.307,3.617
				c-1.613,0.948-2.362,2.956-1.685,4.777c0.009,0.022,0.064,0.165,0.07,0.182c0.721,1.841,2.658,2.793,4.554,2.319
				c-1.174,1.631-0.917,3.936,0.639,5.276l0.069,0.059c0.014,0.014,0.029,0.026,0.044,0.038l0.025,0.021
				c0.769,0.642,1.738,0.963,2.744,0.905c0.857-0.051,1.655-0.371,2.285-0.901c-0.199,1.87,0.977,3.682,2.83,4.209l0.173,0.049
				l0-0.001c1.764,0.487,3.604-0.316,4.472-1.87c0.387,1.7,1.863,2.965,3.659,3.041c0.042,0.003,0.24,0.006,0.278,0.006
				c1.703,0.019,3.144-1.04,3.681-2.637c0.53,1.532,1.983,2.624,3.659,2.645c0.034,0.001,0.174,0.001,0.28,0
				c1.666-0.033,3.091-1.15,3.589-2.71c0.567,1.538,2.064,2.599,3.767,2.565l0.259-0.009c1.714-0.084,3.115-1.267,3.532-2.872
				c0.671,1.556,2.315,2.555,4.06,2.355l0.178-0.021c1.757-0.214,3.111-1.54,3.394-3.223c0.867,1.47,2.635,2.24,4.349,1.824l0,0.001
				l0.038-0.011c0.036-0.009,0.073-0.018,0.11-0.028l0.054-0.017c0.011-0.003,0.023-0.006,0.035-0.01l0.087-0.024l0-0.001
				c1.748-0.546,2.859-2.204,2.743-4.004c1.378,1.278,3.53,1.415,5.065,0.237c0.022-0.018,0.163-0.129,0.179-0.143
				c1.565-1.254,1.886-3.429,0.819-5.102c1.948,0.473,3.973-0.598,4.627-2.513L293,377.11c0.104-0.277,0.176-0.568,0.215-0.862
				c0.215-1.64-0.628-3.212-2.082-3.968c0.852-0.248,1.589-0.773,2.107-1.508c0.602-0.86,0.838-1.904,0.654-2.933
				c-0.006-0.036-0.039-0.219-0.046-0.255c-0.39-1.92-2.118-3.191-4.051-3.069c1.328-1.275,1.62-3.365,0.591-4.967
				c-0.012-0.019-0.11-0.169-0.123-0.187c-1.001-1.491-2.876-2.055-4.53-1.459c0.909-1.462,0.768-3.403-0.427-4.717l-0.164-0.176
				c-1.204-1.262-3.066-1.523-4.573-0.745c0.73-1.475,0.473-3.294-0.731-4.524l0.002-0.001l-0.054-0.051
				c-0.018-0.019-0.038-0.037-0.057-0.056l-0.024-0.022c-0.021-0.02-0.043-0.041-0.066-0.062l-0.043-0.041l-0.001,0
				c-1.228-1.097-3.017-1.297-4.444-0.552c0.608-1.53,0.194-3.34-1.09-4.449l-0.136-0.118l-0.001,0
				c-1.25-1.044-2.988-1.199-4.385-0.441c0.578-1.55,0.125-3.315-1.2-4.399l-0.065-0.054c-1.414-1.196-3.44-1.226-4.878-0.156
				c0.375-1.764-0.533-3.67-2.255-4.437l-0.043-0.019c-0.04-0.018-0.081-0.037-0.121-0.054l-0.002,0
				C259.253,332.096,257.255,332.707,256.214,334.215z"/>
			<g style="opacity:0.1;">
				<path style="fill:#FFFFFF;" d="M253.367,381.38c0.568,1.008,1.644,1.605,2.789,1.58c-1.141-0.319-2.038-1.264-2.258-2.451
					c-0.361,0.549-0.899,0.975-1.543,1.209c-0.756,0.273-1.57,0.248-2.305-0.068l-0.024-0.01c-0.014-0.006-0.028-0.012-0.042-0.019
					l-0.066-0.03c-1.348-0.605-2.058-2.051-1.799-3.44c-0.077,0.035-0.15,0.076-0.23,0.105c-0.782,0.283-1.625,0.257-2.385-0.07
					l-0.025-0.011c-0.014-0.006-0.029-0.012-0.044-0.02l-0.068-0.031c-1.445-0.648-2.176-2.228-1.825-3.711
					c0.018-0.105,0.039-0.208,0.067-0.31c-1.388,0.816-3.14,0.517-4.142-0.768c-0.009-0.012-0.086-0.112-0.098-0.127
					c-0.965-1.282-0.845-3.048,0.209-4.178c-1.502,0.215-2.953-0.619-3.47-2.085c-0.007-0.024-0.039-0.115-0.044-0.127
					c-0.502-1.447,0.094-3.034,1.348-3.819c-1.422-0.153-2.589-1.216-2.818-2.65c-0.005-0.033-0.01-0.066-0.015-0.099l-0.016-0.123
					c-0.196-1.519,0.673-2.915,2.042-3.441c-0.703-0.212-1.294-0.647-1.699-1.215c-1.287,0.308-2.311,1.432-2.433,2.83
					c-0.002,0.037-0.012,0.191-0.014,0.225c-0.077,1.433,0.852,2.688,2.201,3.095c-1.323,0.508-2.163,1.857-1.973,3.325l0.015,0.119
					c0.004,0.033,0.009,0.064,0.014,0.096c0.221,1.385,1.349,2.413,2.723,2.56c-1.212,0.758-1.788,2.292-1.303,3.69
					c0.004,0.012,0.035,0.1,0.042,0.123c0.499,1.417,1.901,2.223,3.352,2.015c-1.019,1.092-1.135,2.798-0.202,4.037
					c0.012,0.015,0.086,0.111,0.095,0.123c0.97,1.245,2.668,1.532,4.011,0.738c-0.527,1.514,0.194,3.22,1.689,3.89l0.066,0.03
					c0.014,0.007,0.028,0.013,0.042,0.019l0.024,0.01c0.734,0.316,1.549,0.341,2.305,0.068c0.644-0.234,1.182-0.66,1.543-1.209
					c0.273,1.475,1.585,2.595,3.122,2.576l0.144-0.002l0-0.001C251.832,383.798,253.057,382.765,253.367,381.38z"/>
			</g>
		</g>
	</g>
	<g>
		<path style="fill:#00A291;" d="M297.91,136.524c0,0-6.005-6.488-5.204-10.504c0.802-4.017,9.547,7.674,9.547,7.674
			s-6.332-11.364-4.309-13.742c2.023-2.378,9.196,12.223,9.196,12.223s-6.519-18.731-1.633-20.251
			c4.886-1.519,10.613,17.459,10.613,17.459s-2.203-14.948,0.792-14.13c2.995,0.818,4.094,12.611,4.094,12.611
			s0.715-13.433,3.611-10.566c2.896,2.867,1.555,10.44,1.555,10.44s-2.352,5.575-12.784,8.818
			C302.953,139.799,297.91,136.524,297.91,136.524z"/>
		<g>
			<path style="fill:#502F69;" d="M293.49,147.885c-1.537-0.298-2.594-1.643-2.415-3.178l0.013-0.113
				c0.18-1.544,1.545-2.714,3.16-2.79c-0.517-0.395-0.88-0.94-1.038-1.57c-0.196-0.783-0.053-1.604,0.4-2.309
				c0.02-0.035,0.101-0.152,0.141-0.212c0.876-1.248,2.543-1.755,3.93-1.263c-0.627-1.196-0.307-2.745,0.822-3.707l-0.001-0.001
				l0.041-0.032c0.019-0.016,0.038-0.031,0.058-0.048l0.021-0.017c0.02-0.016,0.041-0.033,0.062-0.049l0.035-0.027l0.001,0
				c1.163-0.867,2.757-0.91,3.881-0.147c-0.276-1.32,0.43-2.745,1.764-3.409l0.063-0.033c1.37-0.707,2.971-0.435,3.912,0.584
				c-0.044-1.356,0.916-2.69,2.373-3.158c0.037-0.011,0.19-0.056,0.225-0.066c1.43-0.41,2.884,0.17,3.568,1.345
				c0.244-1.367,1.435-2.476,2.953-2.643l0.123-0.013c0.034-0.004,0.066-0.007,0.1-0.009c1.442-0.118,2.707,0.703,3.135,1.963
				c0.519-1.321,1.949-2.225,3.457-2.097c0.013,0.001,0.107,0.009,0.133,0.011c1.53,0.137,2.628,1.268,2.712,2.685
				c0.895-1.217,2.592-1.729,4.031-1.141c0.017,0.008,0.13,0.055,0.143,0.061c1.452,0.621,2.087,2.154,1.558,3.606
				c1.421-0.853,3.286-0.575,4.266,0.676l0.043,0.055c0.01,0.012,0.019,0.023,0.028,0.035l0.015,0.02
				c0.468,0.618,0.658,1.379,0.536,2.156c-0.105,0.662-0.426,1.269-0.906,1.739c1.543-0.09,2.938,0.882,3.231,2.336l0.027,0.136
				l-0.001,0c0.267,1.383-0.526,2.781-1.861,3.399c1.362,0.358,2.286,1.544,2.215,2.937c-0.001,0.033-0.012,0.186-0.016,0.215
				c-0.111,1.32-1.084,2.399-2.429,2.761c1.213,0.463,1.998,1.625,1.891,2.924c-0.001,0.026-0.012,0.135-0.021,0.217
				c-0.151,1.289-1.17,2.354-2.482,2.687c1.216,0.492,1.972,1.688,1.817,3.005l-0.026,0.2c-0.196,1.324-1.267,2.369-2.61,2.637
				c1.223,0.573,1.917,1.88,1.625,3.225l-0.03,0.137c-0.306,1.354-1.49,2.357-2.887,2.518c1.138,0.721,1.636,2.117,1.169,3.431
				l0.001,0l-0.012,0.029c-0.01,0.028-0.02,0.056-0.031,0.084l-0.018,0.041c-0.003,0.008-0.006,0.018-0.011,0.027l-0.026,0.067
				l-0.001,0c-0.576,1.335-2.014,2.139-3.478,1.988c0.943,1.111,0.895,2.782-0.182,3.931c-0.016,0.016-0.118,0.122-0.13,0.134
				c-1.141,1.169-2.943,1.344-4.232,0.46c0.242,1.525-0.784,3.057-2.398,3.498l-0.094,0.028c-0.234,0.071-0.478,0.117-0.721,0.137
				c-1.357,0.111-2.58-0.596-3.09-1.748c-0.266,0.652-0.75,1.204-1.39,1.58c-0.748,0.437-1.618,0.584-2.447,0.406
				c-0.029-0.005-0.176-0.038-0.205-0.044c-1.541-0.368-2.452-1.749-2.209-3.243c-1.141,0.985-2.871,1.14-4.105,0.288
				c-0.015-0.01-0.13-0.091-0.144-0.102c-1.145-0.826-1.467-2.297-0.857-3.558c-1.263,0.654-2.839,0.479-3.825-0.492l-0.132-0.133
				c-0.943-0.975-1.018-2.427-0.27-3.568c-1.26,0.515-2.729,0.253-3.645-0.721l-0.001,0.001l-0.038-0.043
				c-0.014-0.015-0.028-0.031-0.042-0.046l-0.016-0.019c-0.015-0.017-0.03-0.035-0.046-0.053l-0.03-0.035v-0.001
				c-0.806-0.989-0.837-2.381-0.121-3.461c-1.296,0.418-2.745,0.036-3.557-0.996l-0.086-0.11v-0.001
				c-0.761-1.004-0.759-2.355-0.035-3.411c-1.31,0.395-2.72-0.017-3.507-1.08l-0.039-0.052c-0.873-1.136-0.747-2.706,0.234-3.783
				c-1.47,0.23-2.961-0.539-3.46-1.898l-0.012-0.034c-0.012-0.032-0.024-0.064-0.035-0.096l0-0.001
				C291.532,150.167,292.18,148.64,293.49,147.885z"/>
			<g style="opacity:0.1;">
				<path style="fill:#FFFFFF;" d="M332.264,147.293c0.782,0.474,1.19,1.328,1.085,2.214c-0.176-0.895-0.882-1.622-1.836-1.833
					c0.476-0.261,0.864-0.663,1.103-1.154c0.279-0.576,0.32-1.208,0.116-1.787l-0.007-0.019c-0.004-0.011-0.008-0.022-0.013-0.033
					l-0.019-0.052c-0.395-1.065-1.524-1.664-2.679-1.511c0.034-0.058,0.073-0.114,0.103-0.175c0.289-0.596,0.331-1.25,0.12-1.849
					l-0.007-0.02c-0.004-0.011-0.008-0.023-0.013-0.034l-0.02-0.054c-0.423-1.141-1.66-1.762-2.899-1.54
					c-0.087,0.01-0.173,0.023-0.259,0.042c0.77-1.047,0.656-2.414-0.321-3.234c-0.009-0.007-0.085-0.071-0.097-0.081
					c-0.977-0.791-2.43-0.758-3.432,0.019c0.288-1.156-0.287-2.308-1.447-2.758c-0.019-0.007-0.091-0.034-0.101-0.038
					c-1.146-0.438-2.488-0.031-3.223,0.914c-0.02-1.106-0.802-2.046-1.957-2.273c-0.027-0.005-0.053-0.01-0.08-0.015l-0.1-0.017
					c-1.227-0.204-2.434,0.421-2.965,1.464c-0.121-0.551-0.433-1.025-0.867-1.358c0.348-0.986,1.343-1.741,2.495-1.788
					c0.03-0.001,0.157-0.003,0.185-0.003c1.177-0.011,2.134,0.752,2.367,1.81c0.513-1.008,1.679-1.611,2.865-1.414l0.096,0.016
					c0.026,0.004,0.051,0.009,0.077,0.014c1.116,0.219,1.872,1.127,1.891,2.196c0.71-0.913,2.007-1.307,3.114-0.883
					c0.01,0.004,0.079,0.03,0.098,0.037c1.121,0.435,1.676,1.548,1.398,2.665c0.969-0.751,2.372-0.783,3.316-0.018
					c0.011,0.01,0.085,0.071,0.094,0.078c0.946,0.794,1.055,2.119,0.306,3.132c1.277-0.357,2.618,0.26,3.055,1.441l0.019,0.052
					c0.005,0.011,0.009,0.022,0.013,0.033l0.007,0.019c0.204,0.58,0.164,1.211-0.116,1.787c-0.239,0.491-0.627,0.893-1.103,1.154
					c1.186,0.262,2.004,1.316,1.874,2.506l-0.012,0.111l-0.001,0C334.355,146.187,333.42,147.1,332.264,147.293z"/>
			</g>
		</g>
	</g>
	<g>
		<g>
			<path style="fill:#FFD54D;" d="M203.688,290.761c-0.02-10.181,7.25-15.627,7.25-15.627c-2.534-5.651-9.151-3.886-9.151-3.886
				c0.548,6.376-3.537,13.468-5.072,15.882c-0.834-0.105-1.689-0.139-2.554-0.086c-10.718,0.652-37.433,39.338-83.214,30.143
				c-38.553-7.743-62.087-43.305-68.748-29.276c-9.3,19.588,18.435,57.591,61.756,66.551c43.321,8.959,72.604-4.345,91.486-30.556
				C207.809,306.738,208.023,295.968,203.688,290.761z"/>
			<path style="fill:#7D6D5F;" d="M210.938,275.134c-2.534-5.651-9.151-3.886-9.151-3.886c0.202,2.353-0.229,4.802-0.927,7.079
				l1.209-0.507v3.255l2.053-1.88v2.857l2.012-0.996C208.239,277.169,210.938,275.134,210.938,275.134z"/>
		</g>
		<g style="opacity:0.05;">
			<path d="M203.716,290.084c-1.723,4.146-4.403,8.893-8.274,14.267c-18.883,26.211-48.165,39.515-91.486,30.556
				c-31.533-6.521-54.788-28.426-61.534-47.421c-0.075,0.139-0.151,0.275-0.222,0.425c-9.3,19.588,18.435,57.591,61.756,66.551
				c43.321,8.959,72.604-4.345,91.486-30.556c12.368-17.168,12.581-27.938,8.246-33.144
				C203.687,290.529,203.709,290.311,203.716,290.084z"/>
		</g>
	</g>
	<g>
		<path style="fill:#D44163;" d="M191.631,387.344c1.439-1.512,3.791-1.684,5.434-0.397c11.535,9.037,25.784,10.157,32.508,26.077
			c12.707,30.087-36.469,70.306-73.339,65.081c-12.639-1.791-14.586-12.638-23.937-23.027c-1.41-1.566-1.358-3.962,0.095-5.488
			L191.631,387.344z"/>
		<path style="fill:#FEFFDE;" d="M189.97,389.088c1.356-1.425,1.638-3.208,3.173-2.008c10.776,8.427,27.487,14.049,32.291,25.931
			c11.445,28.307-34.507,66.117-69.056,61.378c-11.843-1.625-14.454-13.144-23.176-22.848c-1.315-1.463-0.423-2.359,0.946-3.797
			L189.97,389.088z"/>
		<path style="fill:#EAEBC3;" d="M164.887,420.669c7.846-7.368,15.514-7.548,18.916-2.355c3.606,5.505-9.018,21.627-19.22,16.889
			C156.753,431.565,160.986,424.332,164.887,420.669z"/>
		<path style="fill:#9E8A78;" d="M174.199,421.87c0.439,0.08,0.615,0.393,0.454,0.81c-0.467,1.209-1.755,2.563-3.535,3.561
			c-1.78,0.998-3.606,1.391-4.882,1.16c-0.439-0.08-0.615-0.394-0.454-0.81c0.468-1.209,1.755-2.563,3.535-3.561
			C171.097,422.031,172.923,421.638,174.199,421.87z"/>
	</g>
	<g>
		<g>
			<circle style="fill:#9E8A78;" cx="333.254" cy="432.04" r="47.526"/>
			
				<ellipse transform="matrix(0.7071 -0.7071 0.7071 0.7071 -207.8906 362.1875)" style="fill:#BAD481;" cx="333.254" cy="432.04" rx="43.527" ry="43.527"/>
		</g>
		<g>
			<path style="fill:#FEFFDE;" d="M333.254,411.028l0.88,12.363c0.099,1.392,1.901,1.874,2.682,0.719l6.943-10.266l-5.419,11.146
				c-0.61,1.255,0.709,2.574,1.964,1.964l11.146-5.419l-10.266,6.943c-1.156,0.782-0.673,2.583,0.719,2.682l12.363,0.88
				l-12.363,0.88c-1.392,0.099-1.875,1.9-0.719,2.682l10.266,6.943l-11.146-5.419c-1.255-0.61-2.574,0.709-1.964,1.964l5.419,11.146
				l-6.943-10.266c-0.782-1.156-2.583-0.673-2.682,0.719l-0.88,12.363l-0.88-12.363c-0.099-1.392-1.901-1.874-2.682-0.719
				l-6.943,10.266l5.419-11.146c0.61-1.255-0.709-2.574-1.964-1.964l-11.146,5.419l10.266-6.943
				c1.156-0.782,0.673-2.583-0.719-2.682l-12.362-0.88l12.362-0.88c1.392-0.099,1.875-1.901,0.719-2.682l-10.266-6.943l11.146,5.419
				c1.255,0.61,2.574-0.709,1.964-1.964l-5.419-11.146l6.943,10.266c0.782,1.156,2.583,0.673,2.682-0.719L333.254,411.028z"/>
			<g>
				<path style="fill:#756659;" d="M338.761,414.723c-0.24,1.112-0.967,1.898-1.624,1.757c-0.657-0.142-0.996-1.158-0.756-2.27
					c0.24-1.112,0.967-1.898,1.624-1.757C338.662,412.594,339.001,413.611,338.761,414.723z"/>
				<path style="fill:#756659;" d="M343.373,408.211c-0.573,0.983-1.508,1.505-2.088,1.167c-0.581-0.338-0.587-1.409-0.015-2.392
					c0.573-0.983,1.507-1.505,2.088-1.167C343.939,406.157,343.946,407.228,343.373,408.211z"/>
				<path style="fill:#756659;" d="M344.874,421.681c-0.811,0.798-1.851,1.056-2.322,0.576c-0.471-0.479-0.196-1.514,0.615-2.312
					c0.811-0.798,1.851-1.056,2.322-0.576C345.96,419.849,345.685,420.884,344.874,421.681z"/>
				<path style="fill:#756659;" d="M352.305,418.772c-1.018,0.507-2.087,0.43-2.386-0.171c-0.3-0.602,0.283-1.5,1.301-2.007
					c1.018-0.507,2.087-0.43,2.386,0.171C353.906,417.367,353.323,418.266,352.305,418.772z"/>
				<path style="fill:#756659;" d="M348.452,415.295c-0.769,0.835-1.8,1.142-2.303,0.684s-0.288-1.506,0.481-2.341
					c0.769-0.835,1.8-1.141,2.303-0.684C349.436,413.411,349.22,414.46,348.452,415.295z"/>
				<path style="fill:#756659;" d="M337.84,406.972c-0.158,1.126-0.825,1.964-1.49,1.871c-0.666-0.093-1.078-1.082-0.92-2.208
					c0.158-1.127,0.825-1.964,1.491-1.871C337.586,404.857,337.998,405.846,337.84,406.972z"/>
				<path style="fill:#756659;" d="M330.338,416.026c0.195,1.121-0.185,2.122-0.847,2.237c-0.662,0.115-1.357-0.701-1.551-1.821
					c-0.194-1.121,0.185-2.122,0.847-2.237C329.448,414.09,330.143,414.906,330.338,416.026z"/>
				<path style="fill:#756659;" d="M326.579,409.186c0.276,1.103-0.028,2.13-0.681,2.293c-0.652,0.163-1.405-0.599-1.681-1.703
					c-0.276-1.103,0.029-2.13,0.681-2.293C325.551,407.32,326.303,408.082,326.579,409.186z"/>
				<path style="fill:#756659;" d="M349.809,428.381c-1.125,0.169-2.118-0.232-2.218-0.897c-0.1-0.665,0.731-1.341,1.855-1.51
					c1.125-0.169,2.118,0.232,2.218,0.897C351.765,427.536,350.934,428.212,349.809,428.381z"/>
				<path style="fill:#756659;" d="M357.532,430.39c-1.122-0.188-1.942-0.877-1.831-1.54c0.111-0.663,1.11-1.048,2.232-0.86
					c1.122,0.188,1.942,0.877,1.831,1.54C359.653,430.193,358.654,430.578,357.532,430.39z"/>
				<path style="fill:#756659;" d="M346.81,437.223c-1.033-0.476-1.642-1.357-1.361-1.968c0.281-0.611,1.347-0.719,2.38-0.243
					c1.033,0.476,1.642,1.357,1.361,1.968C348.909,437.591,347.843,437.7,346.81,437.223z"/>
				<path style="fill:#756659;" d="M354.16,441.639c-0.835-0.773-1.141-1.799-0.684-2.292c0.457-0.493,1.503-0.266,2.338,0.507
					c0.835,0.773,1.141,1.799,0.684,2.292C356.041,442.639,354.994,442.412,354.16,441.639z"/>
				<path style="fill:#756659;" d="M354.049,437.263c-1.053-0.423-1.704-1.279-1.454-1.912c0.25-0.633,1.307-0.802,2.36-0.379
					c1.053,0.423,1.705,1.279,1.455,1.912C356.159,437.517,355.103,437.687,354.049,437.263z"/>
				<path style="fill:#756659;" d="M343.477,443.998c-1.032-0.478-1.639-1.361-1.357-1.971c0.283-0.61,1.349-0.716,2.381-0.238
					c1.032,0.478,1.639,1.361,1.357,1.97S344.509,444.476,343.477,443.998z"/>
				<path style="fill:#756659;" d="M347.945,449.121c-0.833-0.775-1.137-1.802-0.679-2.294c0.458-0.492,1.504-0.263,2.337,0.512
					c0.833,0.775,1.137,1.802,0.679,2.294C349.824,450.125,348.778,449.895,347.945,449.121z"/>
				<path style="fill:#756659;" d="M335.997,449.521c-0.434-1.06-0.279-2.123,0.344-2.374c0.624-0.252,1.481,0.404,1.914,1.463
					c0.434,1.06,0.279,2.123-0.344,2.374C337.288,451.236,336.431,450.581,335.997,449.521z"/>
				<path style="fill:#756659;" d="M335.922,456.383c-0.27-1.105,0.039-2.13,0.692-2.29c0.653-0.16,1.401,0.606,1.671,1.711
					c0.27,1.105-0.039,2.13-0.692,2.29C336.941,458.254,336.192,457.488,335.922,456.383z"/>
				<path style="fill:#756659;" d="M340.46,453.953c-0.646-0.934-0.717-2.007-0.16-2.397c0.557-0.39,1.532,0.051,2.178,0.984
					c0.646,0.934,0.718,2.007,0.16,2.397C342.081,455.328,341.106,454.887,340.46,453.953z"/>
				<path style="fill:#756659;" d="M327.643,447.54c0.087-1.134,0.701-2.012,1.372-1.96c0.67,0.052,1.143,1.013,1.055,2.147
					c-0.087,1.134-0.702,2.012-1.372,1.96C328.028,449.635,327.556,448.674,327.643,447.54z"/>
				<path style="fill:#756659;" d="M323.952,454.615c0.435-1.051,1.29-1.695,1.911-1.439c0.621,0.257,0.772,1.317,0.338,2.368
					s-1.29,1.695-1.911,1.439C323.669,456.727,323.518,455.666,323.952,454.615z"/>
				<path style="fill:#756659;" d="M319.699,442.634c0.696-0.9,1.691-1.296,2.223-0.885c0.532,0.411,0.398,1.474-0.297,2.374
					c-0.696,0.9-1.691,1.296-2.223,0.884C318.87,444.596,319.003,443.533,319.699,442.634z"/>
				<path style="fill:#756659;" d="M311.911,447.837c0.941-0.64,2.009-0.708,2.388-0.152c0.378,0.556-0.078,1.525-1.019,2.164
					c-0.94,0.64-2.009,0.708-2.387,0.152C310.514,449.446,310.97,448.477,311.911,447.837z"/>
				<path style="fill:#756659;" d="M317.382,448.761c0.649-0.932,1.629-1.374,2.189-0.988c0.56,0.386,0.489,1.453-0.16,2.385
					c-0.649,0.931-1.629,1.374-2.189,0.988C316.662,450.76,316.733,449.693,317.382,448.761z"/>
				<path style="fill:#756659;" d="M316.815,435.018c1.028-0.487,2.095-0.389,2.382,0.219c0.288,0.607-0.313,1.495-1.341,1.981
					c-1.028,0.487-2.095,0.389-2.382-0.219C315.186,436.392,315.787,435.505,316.815,435.018z"/>
				<path style="fill:#756659;" d="M309.649,437.669c0.942-0.638,2.011-0.704,2.388-0.147c0.377,0.556-0.081,1.525-1.023,2.162
					c-0.942,0.638-2.011,0.704-2.388,0.147C308.249,439.275,308.707,438.307,309.649,437.669z"/>
				<path style="fill:#756659;" d="M317.876,427.121c1.142,0.082,2.026,0.692,1.975,1.363c-0.052,0.671-1.019,1.148-2.161,1.066
					c-1.142-0.082-2.026-0.692-1.975-1.363C315.767,427.517,316.734,427.039,317.876,427.121z"/>
				<path style="fill:#756659;" d="M311.511,422.135c1.116,0.218,1.917,0.929,1.788,1.589c-0.129,0.66-1.138,1.018-2.254,0.8
					c-1.116-0.218-1.917-0.929-1.788-1.589C309.385,422.275,310.395,421.917,311.511,422.135z"/>
				<path style="fill:#756659;" d="M322.032,419.791c0.964,0.617,1.45,1.576,1.084,2.14c-0.366,0.565-1.443,0.522-2.408-0.095
					c-0.964-0.617-1.45-1.576-1.084-2.14C319.99,419.131,321.068,419.174,322.032,419.791z"/>
				<path style="fill:#756659;" d="M315.125,415.854c0.964,0.617,1.45,1.576,1.084,2.14c-0.365,0.565-1.443,0.522-2.408-0.095
					c-0.964-0.617-1.45-1.576-1.084-2.14C313.083,415.194,314.16,415.237,315.125,415.854z"/>
				<path style="fill:#756659;" d="M319.517,413.528c0.877,0.725,1.241,1.732,0.813,2.25c-0.428,0.518-1.486,0.351-2.363-0.374
					c-0.877-0.725-1.241-1.732-0.813-2.25C317.582,412.636,318.64,412.803,319.517,413.528z"/>
				<path style="fill:#756659;" d="M310.527,427.108c1.132-0.089,2.095,0.389,2.152,1.067c0.057,0.678-0.814,1.299-1.946,1.387
					c-1.132,0.089-2.095-0.389-2.152-1.067C308.524,427.818,309.395,427.197,310.527,427.108z"/>
				<path style="fill:#756659;" d="M356.732,424.777c-1.109,0.251-2.129-0.076-2.278-0.732c-0.148-0.656,0.63-1.391,1.74-1.642
					c1.109-0.251,2.129,0.076,2.278,0.732C358.62,423.79,357.841,424.526,356.732,424.777z"/>
			</g>
		</g>
	</g>
	<g>
		<g>
			<path style="fill:#FF616C;" d="M166.228,264.529c-3.017-5.624-14.227-19.936-26.015-4.936
				c-11.188,14.237-16.441,21.834-12.509,29.163c3.931,7.329,12.629,6.153,29.594,2.685
				C175.172,287.787,169.245,270.153,166.228,264.529z"/>
			<g>
				<g>
					<path style="opacity:0.1;" d="M159.548,284.932c-0.576-0.037-4.103,0.333-4.21,1.063c-0.107,0.73,3.246,1.544,3.822,1.581
						c0.576,0.037,1.536-0.498,1.643-1.228C160.91,285.617,160.124,284.969,159.548,284.932z"/>
					<path style="fill:#FFEDBD;" d="M159.352,285.495c-0.399-0.026-3.115,0.138-3.175,0.553c-0.061,0.415,2.556,0.923,2.955,0.949
						c0.399,0.026,0.772-0.289,0.833-0.704C160.025,285.878,159.751,285.521,159.352,285.495z"/>
				</g>
				<g>
					<path style="opacity:0.1;" d="M148.134,260.889c-0.57,0.178-3.851,1.807-3.701,2.505c0.149,0.698,3.673,0.202,4.243,0.024
						c0.57-0.178,1.312-1.014,1.162-1.712C149.688,261.008,148.703,260.711,148.134,260.889z"/>
					<path style="fill:#FFEDBD;" d="M148.139,261.47c-0.395,0.123-2.962,1.269-2.877,1.665c0.085,0.397,2.79-0.105,3.185-0.228
						c0.395-0.123,0.646-0.545,0.561-0.942C148.923,261.569,148.534,261.347,148.139,261.47z"/>
				</g>
				<g>
					<path style="opacity:0.1;" d="M151.537,283.454c-0.529,0.299-3.446,2.6-3.148,3.234c0.298,0.634,3.699-0.639,4.228-0.938
						c0.529-0.299,1.089-1.266,0.79-1.9C153.109,283.215,152.066,283.155,151.537,283.454z"/>
					<path style="fill:#FFEDBD;" d="M151.667,284.008c-0.367,0.207-2.677,1.884-2.508,2.244c0.169,0.36,2.755-0.732,3.121-0.94
						c0.367-0.207,0.527-0.667,0.357-1.028C152.468,283.924,152.033,283.801,151.667,284.008z"/>
				</g>
				<g>
					<path style="opacity:0.1;" d="M133.298,283.565c-0.529,0.299-3.446,2.6-3.148,3.233c0.298,0.634,3.699-0.639,4.228-0.938
						c0.529-0.299,1.089-1.266,0.79-1.9C134.871,283.326,133.827,283.266,133.298,283.565z"/>
					<path style="fill:#FFEDBD;" d="M133.428,284.119c-0.367,0.207-2.677,1.884-2.508,2.244c0.169,0.36,2.755-0.732,3.121-0.94
						c0.367-0.207,0.527-0.667,0.357-1.028C134.229,284.035,133.795,283.911,133.428,284.119z"/>
				</g>
				<g>
					<path style="opacity:0.1;" d="M161.687,279.336c-0.37,0.223-2.366,1.975-2.102,2.493c0.264,0.518,2.688-0.392,3.058-0.615
						c0.37-0.223,0.717-0.981,0.453-1.5C162.831,279.195,162.057,279.113,161.687,279.336z"/>
					<path style="fill:#FFEDBD;" d="M161.821,279.785c-0.256,0.155-1.847,1.425-1.697,1.72c0.15,0.295,1.984-0.498,2.24-0.653
						c0.256-0.155,0.343-0.519,0.193-0.813C162.407,279.744,162.077,279.63,161.821,279.785z"/>
				</g>
				<g>
					<path style="opacity:0.1;" d="M150.358,277.953c-0.37,0.223-2.366,1.975-2.102,2.493c0.264,0.518,2.688-0.393,3.058-0.615
						c0.37-0.223,0.717-0.981,0.453-1.499C151.503,277.813,150.728,277.73,150.358,277.953z"/>
					<path style="fill:#FFEDBD;" d="M150.493,278.402c-0.257,0.155-1.847,1.425-1.697,1.72c0.15,0.295,1.984-0.498,2.24-0.653
						c0.256-0.155,0.343-0.519,0.193-0.813C151.078,278.361,150.749,278.248,150.493,278.402z"/>
				</g>
				<g>
					<path style="opacity:0.1;" d="M151.92,271.396c-0.249,0.361-1.351,2.779-0.878,3.1c0.473,0.321,2.342-1.575,2.59-1.937
						c0.249-0.361,0.242-1.169-0.23-1.49C152.929,270.748,152.169,271.035,151.92,271.396z"/>
					<path style="fill:#FFEDBD;" d="M152.241,271.718c-0.172,0.25-1.106,2.07-0.837,2.253c0.269,0.183,1.637-1.341,1.81-1.591
						c0.172-0.25,0.094-0.601-0.174-0.784C152.771,271.413,152.413,271.468,152.241,271.718z"/>
				</g>
				<g>
					<path style="opacity:0.1;" d="M144.102,280.836c-0.36,0.241-2.277,2.087-1.986,2.589c0.29,0.502,2.678-0.531,3.038-0.772
						s0.671-1.013,0.38-1.514C145.243,280.636,144.462,280.595,144.102,280.836z"/>
					<path style="fill:#FFEDBD;" d="M144.258,281.275c-0.25,0.167-1.784,1.513-1.619,1.798c0.165,0.285,1.967-0.599,2.216-0.766
						c0.25-0.167,0.318-0.533,0.153-0.818C144.844,281.204,144.508,281.108,144.258,281.275z"/>
				</g>
				<g>
					<path style="opacity:0.1;" d="M155.305,267.121c-0.397-0.082-2.901-0.085-3.066,0.513c-0.165,0.598,2.072,1.569,2.469,1.651
						c0.397,0.082,1.132-0.279,1.297-0.877C156.17,267.81,155.702,267.202,155.305,267.121z"/>
					<path style="fill:#FFEDBD;" d="M155.099,267.572c-0.275-0.057-2.188-0.159-2.282,0.18c-0.094,0.34,1.668,0.993,1.943,1.049
						c0.275,0.056,0.574-0.173,0.668-0.512C155.521,267.949,155.374,267.628,155.099,267.572z"/>
				</g>
				<g>
					<path style="opacity:0.1;" d="M146.107,274.083c-0.397,0.154-2.635,1.536-2.47,2.103c0.165,0.567,2.67,0.106,3.067-0.049
						c0.397-0.154,0.865-0.848,0.7-1.415C147.239,274.154,146.504,273.928,146.107,274.083z"/>
					<path style="fill:#FFEDBD;" d="M146.158,274.556c-0.275,0.107-2.037,1.082-1.943,1.405c0.094,0.322,2.007-0.13,2.282-0.237
						c0.275-0.107,0.422-0.455,0.329-0.777C146.732,274.624,146.434,274.449,146.158,274.556z"/>
				</g>
				<g>
					<path style="opacity:0.1;" d="M138.156,271.55c-0.31,0.309-1.844,2.491-1.453,2.91c0.391,0.419,2.56-1.085,2.87-1.393
						c0.31-0.309,0.463-1.116,0.071-1.535C139.253,271.113,138.466,271.241,138.156,271.55z"/>
					<path style="fill:#FFEDBD;" d="M138.401,271.938c-0.215,0.214-1.469,1.835-1.247,2.073c0.222,0.238,1.838-0.997,2.052-1.211
						c0.215-0.214,0.209-0.58-0.014-0.818S138.616,271.724,138.401,271.938z"/>
				</g>
				<g>
					<path style="opacity:0.1;" d="M149.952,257.212c-0.397-0.082-2.901-0.085-3.066,0.513c-0.165,0.598,2.072,1.57,2.469,1.651
						c0.397,0.082,1.132-0.279,1.297-0.877C150.817,257.902,150.349,257.293,149.952,257.212z"/>
					<path style="fill:#FFEDBD;" d="M149.746,257.663c-0.275-0.057-2.188-0.159-2.282,0.181c-0.094,0.34,1.668,0.993,1.943,1.049
						c0.275,0.057,0.574-0.173,0.668-0.512C150.168,258.041,150.021,257.72,149.746,257.663z"/>
				</g>
				<g>
					<path style="opacity:0.1;" d="M147.487,267.348c-0.361,0.24-2.283,2.078-1.995,2.581c0.288,0.503,2.678-0.52,3.039-0.759
						c0.361-0.24,0.674-1.01,0.386-1.513C148.629,267.153,147.848,267.108,147.487,267.348z"/>
					<path style="fill:#FFEDBD;" d="M147.642,267.788c-0.25,0.166-1.788,1.506-1.624,1.792c0.164,0.286,1.968-0.591,2.218-0.757
						c0.25-0.166,0.32-0.532,0.156-0.818S147.893,267.622,147.642,267.788z"/>
				</g>
				<g>
					<path style="opacity:0.1;" d="M145.441,288.487c-0.397-0.081-2.902-0.08-3.066,0.517c-0.164,0.598,2.075,1.566,2.472,1.648
						c0.397,0.081,1.132-0.281,1.296-0.879C146.307,289.175,145.838,288.568,145.441,288.487z"/>
					<path style="fill:#FFEDBD;" d="M145.235,288.938c-0.275-0.056-2.189-0.156-2.282,0.184c-0.093,0.34,1.669,0.99,1.944,1.046
						c0.275,0.056,0.574-0.174,0.667-0.513C145.658,289.315,145.51,288.995,145.235,288.938z"/>
				</g>
				<g>
					<path style="opacity:0.1;" d="M137.647,287.895c-0.404,0.125-2.718,1.345-2.594,1.927c0.124,0.582,2.637,0.305,3.041,0.18
						c0.404-0.125,0.917-0.787,0.793-1.369C138.764,288.051,138.051,287.769,137.647,287.895z"/>
					<path style="fill:#FFEDBD;" d="M137.665,288.374c-0.28,0.087-2.094,0.935-2.023,1.265c0.07,0.331,1.997,0.019,2.278-0.068
						c0.28-0.087,0.45-0.425,0.38-0.756C138.229,288.485,137.945,288.287,137.665,288.374z"/>
				</g>
				<g>
					<path style="opacity:0.1;" d="M138.361,277.948c-0.371,0.22-2.38,1.954-2.12,2.475c0.26,0.521,2.688-0.368,3.06-0.587
						c0.372-0.22,0.724-0.975,0.465-1.496S138.733,277.729,138.361,277.948z"/>
					<path style="fill:#FFEDBD;" d="M138.492,278.399c-0.258,0.152-1.857,1.409-1.71,1.705c0.148,0.296,1.986-0.48,2.243-0.632
						c0.258-0.152,0.347-0.516,0.199-0.812C139.077,278.363,138.749,278.246,138.492,278.399z"/>
				</g>
				<g>
					<path style="opacity:0.1;" d="M140.491,264.706c-0.371,0.22-2.38,1.954-2.12,2.475c0.259,0.521,2.688-0.368,3.06-0.587
						c0.372-0.22,0.724-0.975,0.465-1.496C141.635,264.576,140.862,264.486,140.491,264.706z"/>
					<path style="fill:#FFEDBD;" d="M140.621,265.156c-0.257,0.152-1.857,1.409-1.71,1.705c0.148,0.296,1.986-0.48,2.244-0.632
						c0.257-0.152,0.347-0.516,0.199-0.812C141.207,265.121,140.878,265.004,140.621,265.156z"/>
				</g>
				<g>
					<path style="opacity:0.1;" d="M131.734,275.601c-0.106,0.419-0.273,3.005,0.299,3.107c0.572,0.102,1.667-2.318,1.773-2.737
						s-0.198-1.137-0.77-1.239C132.464,274.63,131.839,275.182,131.734,275.601z"/>
					<path style="fill:#FFEDBD;" d="M132.16,275.763c-0.073,0.29-0.299,2.277,0.026,2.335c0.325,0.058,1.078-1.834,1.151-2.125
						c0.073-0.29-0.131-0.573-0.456-0.631C132.557,275.284,132.234,275.473,132.16,275.763z"/>
				</g>
				<g>
					<path style="opacity:0.1;" d="M156.181,277.308c-0.286,0.332-1.648,2.623-1.221,3.004c0.427,0.38,2.482-1.294,2.768-1.626
						c0.286-0.332,0.373-1.144-0.054-1.524C157.247,276.781,156.467,276.976,156.181,277.308z"/>
					<path style="fill:#FFEDBD;" d="M156.459,277.67c-0.198,0.23-1.326,1.942-1.083,2.158c0.243,0.216,1.763-1.145,1.962-1.375
						c0.198-0.23,0.162-0.592-0.08-0.808C157.015,277.429,156.657,277.44,156.459,277.67z"/>
				</g>
			</g>
		</g>
		<path style="opacity:0.15;" d="M127.011,287.17c-0.113-0.317-0.208-0.636-0.288-0.957c-0.027-0.108-0.06-0.216-0.084-0.324
			c-0.086-0.398-0.145-0.8-0.182-1.206c-0.012-0.14-0.014-0.281-0.021-0.422c-0.014-0.284-0.017-0.569-0.008-0.858
			c0.006-0.172,0.011-0.344,0.025-0.517c0.024-0.313,0.066-0.629,0.116-0.948c0.041-0.256,0.092-0.515,0.149-0.776
			c0.057-0.263,0.118-0.528,0.192-0.796c0.065-0.234,0.137-0.471,0.214-0.709c0.07-0.216,0.148-0.434,0.227-0.653
			c0.19-0.522,0.408-1.055,0.654-1.6c0.053-0.118,0.1-0.233,0.156-0.353c0.149-0.318,0.315-0.643,0.482-0.969
			c0.08-0.155,0.161-0.311,0.244-0.468c0.185-0.347,0.375-0.697,0.58-1.055c0.016-0.027,0.034-0.056,0.049-0.084
			c0.476-0.826,1.003-1.68,1.58-2.566c0.02-0.03,0.038-0.059,0.058-0.089c0.3-0.46,0.614-0.927,0.94-1.405
			c-2.45,6.233-2.635,10.723,0.346,14.623c5.059,6.619,13.497,4.146,29.771-1.834c0.639-0.235,1.229-0.488,1.797-0.75
			c-0.419-1.548-0.727-3.206-0.895-4.951c-0.359-3.734-0.036-7.328,0.803-10.441l-0.092-0.171c-0.89,2.01-2.302,4.092-4.168,5.982
			c-2.009,2.034-4.226,3.526-6.328,4.387c0.833-2.306,2.396-4.77,4.571-6.972c1.77-1.792,3.701-3.162,5.573-4.052
			c-2.093,0.599-4.537,0.783-7.06,0.427c-2.633-0.372-4.94-1.271-6.684-2.484c2.257-0.797,5.008-1.082,7.859-0.68
			c0.248,0.035,0.491,0.079,0.734,0.124c-1.467-0.87-2.911-1.921-4.279-3.17c-2.381-2.173-4.228-4.634-5.495-7.124
			c1.054-0.291,2.085-0.402,3.088-0.36c2.131,1.006,4.255,2.417,6.227,4.216c1.376,1.255,2.57,2.608,3.581,4.006
			c1.234,1.254,2.848,2.646,3.714,2.378c0.124-0.038,0.264-0.105,0.41-0.183c0.25,0.409,0.47,0.793,0.658,1.144
			c0.182,0.34,0.376,0.726,0.573,1.148c-0.136,0.099-0.259,0.198-0.352,0.296c-0.779,0.823-0.155,3.872,0.315,5.708
			c0.126,0.42,0.245,0.846,0.354,1.283c0.028,0.095,0.045,0.147,0.045,0.147l-0.018-0.033c0.331,1.353,0.583,2.778,0.726,4.273
			c0.085,0.886,0.124,1.761,0.135,2.627c0.6-0.504,1.138-1.027,1.603-1.573c-0.029,0.587-0.087,1.171-0.178,1.75
			c0,0.003-0.001,0.006-0.001,0.008c-0.272,1.738-0.837,3.423-1.791,4.954c0,0.003-0.001,0.006-0.002,0.009
			c-0.482,0.771-1.053,1.507-1.748,2.186c-0.001-0.003-0.003-0.005-0.004-0.007c-0.422,0.412-0.893,0.802-1.402,1.172
			c-0.087,0.063-0.17,0.128-0.259,0.19c-0.195,0.135-0.402,0.264-0.61,0.393c-0.137,0.085-0.274,0.17-0.416,0.251
			c-0.194,0.112-0.396,0.219-0.601,0.325c-0.177,0.091-0.359,0.181-0.544,0.268c-0.194,0.092-0.392,0.181-0.595,0.268
			c-0.222,0.094-0.453,0.184-0.686,0.272c-0.19,0.072-0.378,0.145-0.576,0.213c-0.285,0.098-0.584,0.188-0.884,0.276
			c-0.168,0.05-0.329,0.103-0.501,0.15c-0.485,0.131-0.986,0.253-1.512,0.36c-16.965,3.468-25.663,4.644-29.594-2.685
			c-0.218-0.407-0.398-0.816-0.56-1.226C127.096,287.41,127.054,287.29,127.011,287.17z"/>
		<path style="fill:#007D70;" d="M159.819,255.731c1.376,1.255,2.57,2.608,3.581,4.005c1.234,1.254,2.848,2.646,3.714,2.378
			c1.527-0.473,4.993-4.277,4.993-4.277s0.611-0.056,1.48,1.564l0.201,0.374c0.869,1.62,0.521,2.167,0.521,2.167
			s-4.769,1.375-5.905,2.576c-0.779,0.824-0.155,3.872,0.315,5.708c0.126,0.42,0.245,0.846,0.354,1.283
			c0.028,0.095,0.044,0.147,0.044,0.147l-0.018-0.033c0.331,1.353,0.583,2.778,0.726,4.273c0.4,4.159-0.04,8.148-1.104,11.486
			c-1.876-2.892-3.219-6.831-3.651-11.333c-0.359-3.734-0.036-7.328,0.803-10.441l-0.092-0.171c-0.89,2.01-2.302,4.092-4.168,5.982
			c-2.009,2.034-4.226,3.526-6.328,4.387c0.833-2.306,2.396-4.77,4.571-6.972c1.77-1.792,3.701-3.162,5.573-4.052
			c-2.093,0.599-4.537,0.783-7.06,0.427c-2.633-0.372-4.94-1.271-6.684-2.484c2.257-0.797,5.008-1.082,7.859-0.68
			c0.249,0.035,0.491,0.079,0.734,0.124c-1.467-0.87-2.911-1.921-4.279-3.17c-2.938-2.68-5.078-5.798-6.295-8.87
			C153.062,250.931,156.639,252.829,159.819,255.731z"/>
	</g>
	<g>
		<g>
			<path style="fill:#9E8A78;" d="M50.179,417.732l-9.508-5.383c0,0-2.938,3.055-12.142,0.647l5.12,3.207l-3.865,2.275l3.901,2.212
				l-2.32,4.7l4.148,1.566l-2.594,5.227c0,0,2.168-3.13,13.608-5.747L50.179,417.732z"/>
			<path style="fill:#9E8A78;" d="M122.625,401.963l9.508,5.383c0,0,2.938-3.055,12.142-0.647l-5.12-3.207l3.865-2.275l-3.902-2.212
				l2.32-4.7l-4.148-1.566l2.594-5.227c0,0-2.168,3.13-13.608,5.747L122.625,401.963z"/>
			
				<ellipse transform="matrix(0.9748 -0.2231 0.2231 0.9748 -89.163 29.571)" style="fill:#9E8A78;" cx="86.314" cy="409.464" rx="50.308" ry="39.69"/>
			<path style="opacity:0.15;" d="M92.897,438.199c-23.151,5.298-41.373,1.158-52.396-8.669
				c8.249,15.973,27.948,24.738,54.666,18.624c26.701-6.11,40.628-22.552,41.126-40.51
				C130.63,421.27,116.027,432.906,92.897,438.199z"/>
		</g>
		<g>
			<path style="opacity:0.05;fill:#FFFFFF;" d="M85.11,375.885c0.229,1.497-2.159,3.106-5.334,3.592
				c-3.175,0.486-5.936-0.334-6.165-1.831c-0.229-1.498,2.159-3.106,5.334-3.592C82.121,373.568,84.881,374.388,85.11,375.885z"/>
			<path style="opacity:0.05;fill:#FFFFFF;" d="M111.252,377.099c-0.294,1.211-2.614,1.687-5.181,1.063
				c-2.567-0.624-4.41-2.111-4.116-3.322c0.294-1.211,2.614-1.686,5.181-1.063C109.703,374.401,111.546,375.888,111.252,377.099z"/>
			<path style="opacity:0.05;fill:#FFFFFF;" d="M102.408,381.983c0.098,2.155-3.527,4.071-8.097,4.279
				c-4.57,0.208-8.355-1.371-8.453-3.526c-0.098-2.155,3.527-4.071,8.097-4.279C98.525,378.249,102.309,379.828,102.408,381.983z"/>
		</g>
	</g>
	<g>
		<g>
			<path style="fill:#FF616C;" d="M453.209,398.257c-8.087-5.525-31.957-17.269-41.287,5.055
				c-10.8,25.842-16.248,41.585-4.917,52.479c12.194,11.724,27.547,3.273,54.019-13.909
				C485.676,425.882,461.669,404.037,453.209,398.257z"/>
			<g>
				<g>
					<path style="opacity:0.1;" d="M459.027,429.887c-0.944,0.258-6.286,2.807-5.863,4.047c0.427,1.251,6.54,0.668,7.498,0.401
						c0.956-0.266,2.022-1.672,1.559-2.899C461.763,430.22,459.97,429.63,459.027,429.887z"/>
					<path style="fill:#FFEDBD;" d="M459.191,430.886c-0.657,0.18-4.869,1.957-4.625,2.661c0.245,0.708,4.89,0.05,5.552-0.133
						c0.661-0.183,0.985-0.9,0.725-1.599C460.586,431.121,459.847,430.707,459.191,430.886z"/>
				</g>
				<g>
					<path style="opacity:0.1;" d="M424.605,401.482c-0.748,0.476-4.78,4.044-4.156,4.896c0.628,0.858,5.702-1.398,6.455-1.886
						c0.75-0.486,1.358-1.891,0.718-2.717C426.986,400.956,425.35,401.009,424.605,401.482z"/>
					<path style="fill:#FFEDBD;" d="M424.95,402.219c-0.52,0.332-3.739,2.959-3.383,3.441c0.357,0.484,4.167-1.393,4.688-1.729
						c0.52-0.335,0.645-0.99,0.283-1.461C426.179,402.001,425.468,401.889,424.95,402.219z"/>
				</g>
				<g>
					<path style="opacity:0.1;" d="M444.969,431.977c-0.634,0.777-3.705,6.232-2.718,7.122c0.993,0.896,5.648-3.22,6.279-4.015
						c0.627-0.79,0.768-2.67-0.216-3.518C447.337,430.722,445.6,431.205,444.969,431.977z"/>
					<path style="fill:#FFEDBD;" d="M445.608,432.794c-0.439,0.541-2.965,4.619-2.404,5.121c0.563,0.504,3.99-2.806,4.427-3.354
						c0.436-0.546,0.333-1.382-0.225-1.867C446.849,432.211,446.046,432.255,445.608,432.794z"/>
				</g>
				<g>
					<path style="opacity:0.1;" d="M414.046,442.795c-0.756,0.844-4.622,6.772-3.693,7.738c0.934,0.973,6.301-3.507,7.056-4.371
						c0.75-0.859,1.119-2.899,0.189-3.818C416.673,441.431,414.798,441.956,414.046,442.795z"/>
					<path style="fill:#FFEDBD;" d="M414.619,443.681c-0.524,0.588-3.654,5.02-3.126,5.565c0.53,0.547,4.514-3.053,5.037-3.649
						c0.521-0.593,0.512-1.5-0.016-2.026C415.987,443.046,415.141,443.095,414.619,443.681z"/>
				</g>
				<g>
					<path style="opacity:0.1;" d="M457.753,420.255c-0.387,0.516-2.064,4.164-1.232,4.811c0.835,0.65,3.845-2.001,4.23-2.526
						c0.383-0.523,0.287-1.821-0.541-2.447C459.386,419.47,458.139,419.741,457.753,420.255z"/>
					<path style="fill:#FFEDBD;" d="M458.32,420.846c-0.268,0.359-1.697,3.079-1.224,3.444c0.473,0.367,2.661-1.783,2.928-2.145
						c0.266-0.362,0.099-0.944-0.371-1.302C459.184,420.487,458.588,420.488,458.32,420.846z"/>
				</g>
				<g>
					<path style="opacity:0.1;" d="M439,424.055c-0.433,0.533-2.409,4.299-1.609,4.966c0.804,0.671,4.067-2.068,4.498-2.61
						c0.429-0.54,0.425-1.879-0.372-2.525C440.722,423.244,439.431,423.525,439,424.055z"/>
					<path style="fill:#FFEDBD;" d="M439.535,424.665c-0.3,0.371-1.955,3.178-1.501,3.556c0.456,0.378,2.843-1.841,3.142-2.216
						c0.298-0.373,0.17-0.975-0.283-1.343C440.441,424.294,439.834,424.295,439.535,424.665z"/>
				</g>
				<g>
					<path style="opacity:0.1;" d="M436.907,413.737c-0.14,0.627-0.212,4.62,0.75,4.848c0.963,0.229,2.546-3.417,2.678-4.047
						c0.131-0.627-0.436-1.749-1.377-1.968C438.017,412.351,437.046,413.113,436.907,413.737z"/>
					<path style="fill:#FFEDBD;" d="M437.618,414.032c-0.096,0.435-0.303,3.483,0.242,3.612c0.545,0.129,1.614-2.72,1.707-3.156
						c0.092-0.435-0.268-0.888-0.805-1.013C438.225,413.349,437.714,413.598,437.618,414.032z"/>
				</g>
				<g>
					<path style="opacity:0.1;" d="M430.821,431.938c-0.435,0.59-2.396,4.703-1.558,5.368c0.843,0.669,4.148-2.424,4.58-3.024
						c0.43-0.597,0.399-2.019-0.436-2.661C432.577,430.982,431.254,431.351,430.821,431.938z"/>
					<path style="fill:#FFEDBD;" d="M431.384,432.556c-0.301,0.41-1.95,3.486-1.474,3.862c0.478,0.377,2.892-2.115,3.192-2.529
						c0.299-0.413,0.155-1.044-0.319-1.411C432.31,432.112,431.684,432.147,431.384,432.556z"/>
				</g>
				<g>
					<path style="opacity:0.1;" d="M439.169,406.346c-0.646,0.073-4.401,1.214-4.263,2.088c0.139,0.881,4.168,1.15,4.822,1.075
						c0.653-0.075,1.511-0.902,1.351-1.777C440.92,406.863,439.814,406.274,439.169,406.346z"/>
					<path style="fill:#FFEDBD;" d="M439.162,407.037c-0.449,0.051-3.387,0.792-3.306,1.29c0.081,0.499,3.171,0.56,3.622,0.508
						c0.452-0.052,0.745-0.498,0.656-0.995C440.046,407.345,439.611,406.986,439.162,407.037z"/>
				</g>
				<g>
					<path style="opacity:0.1;" d="M429.574,420.483c-0.535,0.431-3.254,3.662-2.62,4.438c0.638,0.779,4.398-1.247,4.934-1.688
						c0.534-0.439,0.817-1.716,0.175-2.471C431.425,420.01,430.106,420.053,429.574,420.483z"/>
					<path style="fill:#FFEDBD;" d="M429.965,421.156c-0.371,0.3-2.577,2.678-2.216,3.117c0.362,0.44,3.159-1.25,3.531-1.554
						c0.37-0.303,0.374-0.898,0.01-1.329C430.927,420.961,430.335,420.857,429.965,421.156z"/>
				</g>
				<g>
					<path style="opacity:0.1;" d="M415.182,420.819c-0.33,0.617-1.613,4.718-0.719,5.153c0.897,0.436,3.596-3.003,3.92-3.628
						c0.323-0.621,0.093-1.896-0.788-2.313C416.716,419.615,415.511,420.204,415.182,420.819z"/>
					<path style="fill:#FFEDBD;" d="M415.806,421.267c-0.228,0.429-1.36,3.53-0.853,3.775c0.508,0.246,2.447-2.476,2.673-2.908
						c0.225-0.43-0.001-0.972-0.502-1.21C416.623,420.687,416.034,420.84,415.806,421.267z"/>
				</g>
				<g>
					<path style="opacity:0.1;" d="M425.177,396.141c-0.625,0.066-4.3,1.112-4.214,1.917c0.087,0.81,3.947,1.063,4.58,0.995
						c0.632-0.068,1.503-0.828,1.397-1.634C426.833,396.619,425.802,396.074,425.177,396.141z"/>
					<path style="fill:#FFEDBD;" d="M425.133,396.776c-0.435,0.046-3.301,0.725-3.25,1.183c0.051,0.459,3.019,0.519,3.457,0.472
						c0.437-0.047,0.744-0.457,0.685-0.914C425.966,397.061,425.567,396.73,425.133,396.776z"/>
				</g>
				<g>
					<path style="opacity:0.1;" d="M427.477,410.266c-0.409,0.497-2.273,3.967-1.511,4.534c0.765,0.57,3.853-2.025,4.26-2.53
						c0.405-0.503,0.398-1.708-0.36-2.257C429.11,409.466,427.885,409.771,427.477,410.266z"/>
					<path style="fill:#FFEDBD;" d="M427.987,410.794c-0.283,0.346-1.846,2.939-1.413,3.26c0.434,0.322,2.693-1.772,2.975-2.121
						c0.282-0.348,0.159-0.884-0.272-1.197C428.847,410.423,428.27,410.449,427.987,410.794z"/>
				</g>
				<g>
					<path style="opacity:0.1;" d="M438.626,443.958c-0.744,0.102-5.077,1.645-4.921,2.808c0.157,1.172,4.808,1.501,5.563,1.396
						c0.754-0.105,1.745-1.213,1.559-2.376C440.644,444.632,439.37,443.857,438.626,443.958z"/>
					<path style="fill:#FFEDBD;" d="M438.618,444.876c-0.517,0.071-3.907,1.079-3.816,1.74c0.092,0.664,3.658,0.722,4.179,0.649
						c0.521-0.072,0.86-0.668,0.757-1.329C439.636,445.278,439.135,444.805,438.618,444.876z"/>
				</g>
				<g>
					<path style="opacity:0.1;" d="M424.583,447.748c-0.633,0.48-3.959,4.189-3.341,5.188c0.622,1.005,4.978-1.152,5.614-1.644
						c0.634-0.491,1.075-2.025,0.443-2.998C426.671,447.326,425.214,447.269,424.583,447.748z"/>
					<path style="fill:#FFEDBD;" d="M424.946,448.6c-0.439,0.335-3.114,3.048-2.761,3.613c0.354,0.568,3.612-1.259,4.052-1.599
						c0.439-0.339,0.504-1.064,0.146-1.619C426.026,448.443,425.384,448.266,424.946,448.6z"/>
				</g>
				<g>
					<path style="opacity:0.1;" d="M419.33,430.523c-0.491,0.556-2.845,4.5-2.079,5.209c0.77,0.713,4.363-2.14,4.852-2.707
						c0.487-0.564,0.597-1.973-0.169-2.658C421.17,429.685,419.818,429.969,419.33,430.523z"/>
					<path style="fill:#FFEDBD;" d="M419.829,431.168c-0.34,0.387-2.283,3.325-1.847,3.726c0.437,0.402,3.083-1.912,3.423-2.303
						c0.338-0.39,0.258-1.023-0.177-1.415C420.793,430.786,420.167,430.782,419.829,431.168z"/>
				</g>
				<g>
					<path style="opacity:0.1;" d="M415.078,409.96c-0.462,0.474-2.695,3.836-1.996,4.442c0.702,0.609,4.063-1.816,4.524-2.298
						c0.459-0.48,0.582-1.684-0.116-2.272C416.793,409.247,415.538,409.487,415.078,409.96z"/>
					<path style="fill:#FFEDBD;" d="M415.53,410.513c-0.32,0.33-2.158,2.834-1.761,3.177c0.398,0.344,2.878-1.625,3.198-1.958
						c0.319-0.332,0.254-0.874-0.143-1.209C416.427,410.188,415.849,410.183,415.53,410.513z"/>
				</g>
				<g>
					<path style="opacity:0.1;" d="M406.707,430.465c0.048,0.727,1.193,5.024,2.247,4.863c1.052-0.161,1.554-4.698,1.497-5.422
						c-0.057-0.72-0.974-1.682-2.001-1.53C407.423,428.528,406.66,429.741,406.707,430.465z"/>
					<path style="fill:#FFEDBD;" d="M407.527,430.485c0.034,0.504,0.752,3.843,1.349,3.753c0.596-0.091,0.818-3.568,0.78-4.071
						c-0.038-0.501-0.544-0.835-1.129-0.748C407.94,429.507,407.493,429.983,407.527,430.485z"/>
				</g>
				<g>
					<path style="opacity:0.1;" d="M447.694,420.084c-0.196,0.634-0.604,4.77,0.361,5.122c0.968,0.354,2.898-3.245,3.087-3.885
						c0.187-0.636-0.301-1.87-1.249-2.208C448.947,418.776,447.889,419.453,447.694,420.084z"/>
					<path style="fill:#FFEDBD;" d="M448.398,420.474c-0.135,0.44-0.602,3.579-0.055,3.779c0.548,0.199,1.883-2.632,2.015-3.075
						c0.131-0.441-0.201-0.954-0.741-1.148C449.077,419.837,448.532,420.035,448.398,420.474z"/>
				</g>
			</g>
		</g>
		<path style="opacity:0.15;" d="M404.777,453.262c-0.393-0.518-0.754-1.048-1.085-1.59c-0.112-0.182-0.234-0.359-0.339-0.544
			c-0.384-0.677-0.719-1.374-1.013-2.089c-0.101-0.246-0.182-0.501-0.272-0.751c-0.182-0.503-0.345-1.014-0.486-1.536
			c-0.084-0.31-0.168-0.62-0.237-0.937c-0.125-0.569-0.222-1.154-0.303-1.746c-0.064-0.474-0.111-0.958-0.148-1.446
			c-0.037-0.491-0.068-0.985-0.078-1.492c-0.008-0.44-0.004-0.888,0.008-1.341c0.01-0.408,0.034-0.825,0.06-1.242
			c0.063-0.991,0.168-2.007,0.316-3.053c0.032-0.226,0.053-0.442,0.089-0.671c0.096-0.607,0.215-1.232,0.337-1.857
			c0.058-0.297,0.117-0.594,0.181-0.895c0.14-0.662,0.286-1.327,0.454-2.01c0.013-0.052,0.029-0.108,0.041-0.16
			c0.387-1.564,0.843-3.18,1.361-4.853c0.017-0.056,0.033-0.111,0.051-0.167c0.268-0.859,0.551-1.732,0.85-2.62
			c-0.895,11.057,1.235,18.663,8.863,23.647c13.545,8.851,26.593-1.035,48.324-20.14c0.791-0.696,1.489-1.391,2.141-2.083
			c-1.943-2.092-3.775-4.367-5.436-6.8c-3.452-5.057-5.673-10.047-6.721-14.461l-0.255-0.178c0.163,2.984-0.385,6.38-1.773,9.823
			c-1.538,3.816-3.848,7.065-6.498,9.4c-0.365-3.79,0.28-8.047,2.004-12.096c1.362-3.2,3.221-5.848,5.294-7.805
			c-2.599,1.682-6.037,3.006-9.995,3.675c-4.159,0.702-8.188,0.565-11.561-0.236c2.884-2.038,6.766-3.608,11.187-4.338
			c0.384-0.063,0.765-0.113,1.146-0.162c-2.696-0.458-5.465-1.151-8.233-2.117c-4.767-1.664-8.858-3.873-12.057-6.312
			c1.358-0.762,2.773-1.302,4.226-1.651c3.593,0.321,7.424,1.117,11.301,2.436c2.728,0.928,5.283,2.055,7.631,3.321
			c2.59,1.011,5.835,2.039,6.873,1.344c0.148-0.099,0.298-0.239,0.449-0.396c0.639,0.395,1.222,0.774,1.736,1.125
			c0.5,0.342,1.051,0.737,1.635,1.176c-0.12,0.181-0.223,0.357-0.283,0.519c-0.509,1.37,2.643,5,4.722,7.196
			c0.508,0.499,1.012,1.012,1.512,1.546c0.116,0.114,0.18,0.176,0.18,0.176l-0.052-0.036c1.553,1.671,3.071,3.501,4.508,5.507
			c0.862,1.204,1.655,2.426,2.405,3.66c0.465-1.02,0.817-2.03,1.041-3.027c0.456,0.842,0.869,1.7,1.233,2.571
			c0.002,0.004,0.003,0.008,0.005,0.013c1.105,2.654,1.743,5.434,1.662,8.246c0.002,0.005,0.003,0.009,0.005,0.014
			c-0.044,1.44-0.257,2.889-0.72,4.333c-0.004-0.003-0.009-0.006-0.013-0.009c-0.282,0.884-0.665,1.765-1.125,2.643
			c-0.079,0.15-0.15,0.302-0.235,0.452c-0.184,0.328-0.394,0.653-0.606,0.98c-0.14,0.215-0.279,0.431-0.431,0.646
			c-0.207,0.293-0.431,0.584-0.661,0.876c-0.2,0.252-0.408,0.504-0.626,0.754c-0.228,0.264-0.463,0.527-0.712,0.788
			c-0.272,0.286-0.562,0.569-0.859,0.852c-0.242,0.232-0.48,0.464-0.739,0.694c-0.374,0.332-0.778,0.659-1.188,0.987
			c-0.229,0.183-0.444,0.369-0.684,0.55c-0.676,0.511-1.39,1.019-2.159,1.518c-26.472,17.182-41.826,25.633-54.019,13.909
			c-0.651-0.626-1.228-1.278-1.771-1.941C405.076,453.656,404.927,453.459,404.777,453.262z"/>
		<path style="fill:#007D70;" d="M438.366,390.386c2.705,0.909,5.239,2.012,7.571,3.252c2.568,0.99,5.785,1.996,6.806,1.317
			c1.783-1.188,3.829-6.957,3.829-6.957s0.78-0.298,3.095,1.2l0.538,0.348c2.351,1.521,2.285,2.294,2.285,2.294
			s-5.523,3.56-6.233,5.487c-0.494,1.34,2.647,4.89,4.717,7.037c0.505,0.487,1.007,0.989,1.505,1.511
			c0.115,0.111,0.179,0.172,0.179,0.172l-0.052-0.035c1.546,1.634,3.058,3.422,4.491,5.382c4.104,5.616,6.973,11.664,8.411,17.324
			c-5.504-3.445-10.949-8.623-15.284-14.84c-3.445-4.941-5.675-9.818-6.742-14.133l-0.254-0.174c0.183,2.917-0.335,6.237-1.682,9.6
			c-1.492,3.727-3.75,6.898-6.349,9.177c-0.389-3.7,0.217-7.858,1.89-11.813c1.323-3.127,3.14-5.715,5.175-7.628
			c-2.557,1.644-5.945,2.937-9.853,3.589c-4.105,0.685-8.088,0.549-11.427-0.234c2.833-1.991,6.659-3.526,11.023-4.238
			c0.379-0.062,0.755-0.11,1.132-0.158c-2.669-0.449-5.412-1.128-8.155-2.074c-5.822-2.007-10.654-4.813-14.045-7.861
			C426.103,387.543,432.186,388.309,438.366,390.386z"/>
	</g>
</g>
</svg>
